{
	"accessors": [
		{
			"bufferView": 0,
			"byteOffset": 0,
			"componentType": 5123,
			"count": 324,
			"type": "SCALAR"
		},
		{
			"bufferView": 1,
			"byteOffset": 0,
			"componentType": 5126,
			"count": 216,
			"max": [
				3.0,
				-3.0,
				0.9000000357627869
			],
			"min": [
				0.0,
				-6.0,
				0.0
			],
			"type": "VEC3"
		},
		{
			"bufferView": 2,
			"byteOffset": 0,
			"componentType": 5126,
			"count": 216,
			"type": "VEC3"
		},
		{
			"bufferView": 3,
			"byteOffset": 0,
			"componentType": 5121,
			"count": 216,
			"normalized": true,
			"type": "VEC4"
		}
	],
	"asset": {
		"extras": {
			"created": "Sun Jul 21 17:03:28 2024"
		},
		"generator": "Gestaltor 2022.3.3 Linguine Community",
		"version": "2.0"
	},
	"bufferViews": [
		{
			"buffer": 0,
			"byteLength": 648,
			"byteOffset": 0
		},
		{
			"buffer": 0,
			"byteLength": 2592,
			"byteOffset": 648,
			"byteStride": 12
		},
		{
			"buffer": 0,
			"byteLength": 2592,
			"byteOffset": 3240,
			"byteStride": 12
		},
		{
			"buffer": 0,
			"byteLength": 864,
			"byteOffset": 5832,
			"byteStride": 4
		}
	],
	"buffers": [
		{
			"byteLength": 6696,
			"uri": "data:application/octet-stream;base64,"
		}
	],
	"materials": [
		{
			"emissiveFactor": [
				0.200000003,
				0.200000003,
				0.200000003
			],
			"name": "Material.1",
			"pbrMetallicRoughness": {
				"roughnessFactor": 0.5
			}
		}
	],
	"meshes": [
		{
			"primitives": [
				{
					"attributes": {
						"COLOR_0": 3,
						"NORMAL": 2,
						"POSITION": 1
					},
					"indices": 0,
					"material": 0,
					"mode": 4
				}
			]
		}
	],
	"nodes": [
		{
			"children": [
				2
			],
			"matrix": [
				1.0,
				0.0,
				0.0,
				0.0,
				0.0,
				2.220446049250313e-16,
				-1.0,
				0.0,
				0.0,
				1.0,
				2.220446049250313e-16,
				0.0,
				0.0,
				0.0,
				0.0,
				1.0
			]
		},
		{
			"mesh": 0
		},
		{
			"children": [
				1
			]
		}
	],
	"scenes": [
		{
			"nodes": [
				0
			]
		}
	]
}