<svg xmlns="http://www.w3.org/2000/svg" xmlns:xlink="http://www.w3.org/1999/xlink" contentStyleType="text/css" data-diagram-type="DESCRIPTION" height="702px" preserveAspectRatio="none" style="width:1704px;height:702px;background:#FFFFFF;" version="1.1" viewBox="0 0 1704 702" width="1704px" zoomAndPan="magnify"><?plantuml 1.2026.3beta5?><defs/><g><g class="title" data-source-line="1"><text fill="#000000" font-family="sans-serif" font-size="14" font-weight="700" lengthAdjust="spacing" textLength="326.04" x="685.6535" y="22.9951">game-lib sounds: audio utilities overview</text></g><!--cluster src/lib/sounds--><g class="cluster" data-qualified-name="src.lib.sounds" data-source-line="17" id="ent0002"><rect fill="none" height="240" rx="2.5" ry="2.5" style="stroke:#181818;stroke-width:1;" width="481.82" x="448.54" y="174.4269"/><text fill="#000000" font-family="sans-serif" font-size="14" font-weight="700" lengthAdjust="spacing" textLength="109.6211" x="634.6395" y="189.422">src/lib/sounds</text></g><!--cluster Typical call sites--><g class="cluster" data-qualified-name="Typical call sites" data-source-line="24" id="ent0007"><rect fill="none" height="191" rx="2.5" ry="2.5" style="stroke:#181818;stroke-width:1;" width="216.82" x="82.26" y="183.4269"/><text fill="#000000" font-family="sans-serif" font-size="14" font-weight="700" lengthAdjust="spacing" textLength="130.7852" x="125.2774" y="198.422">Typical call sites</text></g><!--cluster Browser Web Audio API--><g class="cluster" data-qualified-name="Browser Web Audio API" data-source-line="29" id="ent0010"><path d="M1047.8352,286.6053 C1061.0466,267.3684 1083.4065,261.9184 1095.9569,287.3179 C1108.6378,269.7499 1127.1068,267.1871 1137.3498,289.8276 C1147.7738,266.0533 1168.479,266.6115 1182.63,285.9095 C1192.9497,266.836 1211.5337,265.8802 1220.7977,286.9141 C1234.8518,260.4041 1253.9362,262.0194 1269.0205,285.9288 C1282.5628,269.9044 1301.651,271.8619 1311.3542,290.6035 C1322.4457,268.9217 1337.3867,271.0732 1352.1579,286.5643 C1370.4611,267.5348 1386.3964,266.5281 1400.89,290.8471 C1411.5094,270.609 1427.9497,269.2508 1442.8804,285.9455 C1457.1761,265.2393 1475.9913,265.0739 1486.5211,289.5805 C1497.3966,268.2384 1515.7522,270.2209 1527.5159,288.6653 C1539.352,264.7288 1558.0356,266.3151 1570.9873,287.5925 C1583.0482,270.3662 1601.2334,268.0974 1610.785,290.1358 C1627.8068,268.9128 1644.9626,263.7443 1660.72,291.4269 C1661.6494,290.4158 1662.7322,290.6873 1663.0739,292.0177 C1688.4977,304.1483 1681.6069,327.4609 1662.4364,338.9862 C1680.3097,344.2574 1687.0262,360.5699 1670.755,373.962 C1689.3471,388.5199 1683.3864,407.3474 1663.4433,415.0476 C1681.8815,431.7682 1676.7329,451.788 1653.72,459.4269 C1655.0318,459.961 1655.0959,461.0782 1653.9863,461.8756 C1645.6239,480.3074 1624.7261,483.6541 1611.7592,467.4968 C1601.5964,486.4881 1580.1591,491.3159 1568.5254,469.0377 C1553.8469,486.8258 1540.7433,485.1238 1530.2429,464.8368 C1521.0131,489.756 1504.206,491.3697 1485.9349,474.4003 C1473.4694,496.6933 1453.7781,493.099 1442.5829,473.0982 C1428.2098,499.5085 1410.1299,499.1019 1394.131,474.6468 C1383.8524,494.157 1364.8714,494.296 1352.9916,476.4081 C1341.0022,492.3426 1322.48,491.7785 1312.9659,473.5113 C1301.6082,492.9544 1278.7244,500.5757 1265.6874,475.2862 C1251.126,498.8918 1231.9178,490.912 1220.5939,471.8636 C1207.2624,491.0963 1193.651,491.876 1180.5048,471.6752 C1166.1642,493.6159 1151.013,491.7247 1138.0244,470.3493 C1118.6472,492.5363 1100.123,490.8069 1089.3492,462.1181 C1069.692,480.2892 1049.2237,480.9558 1038.46,452.4269 C1041.3074,453.3938 1041.9691,455.4178 1039.5488,457.5125 C1018.2556,446.2688 1017.9663,425.2091 1038.8285,413.279 C1019.2187,402.8455 1019.9605,384.8544 1039.0353,374.6278 C1022.8282,364.5836 1020.4253,349.0613 1039.0984,339.079 C1014.0737,320.6475 1017.0555,296.6391 1045.46,284.4269 C1047.3892,283.8006 1048.2632,284.6614 1047.8352,286.6053" fill="none" style="stroke:#181818;stroke-width:1;"/><text fill="#000000" font-family="sans-serif" font-size="14" font-weight="700" lengthAdjust="spacing" textLength="185.9854" x="1256.5973" y="302.422">Browser Web Audio API</text></g><!--cluster Separate subsystem\n(not used directly here)--><g class="cluster" data-qualified-name="Separate subsystem.n.not used directly here." data-source-line="36" id="ent0015"><rect fill="none" height="119" rx="2.5" ry="2.5" style="stroke:#181818;stroke-width:1;" width="538.22" x="97.78" y="465.4269"/><text fill="#000000" font-family="sans-serif" font-size="14" font-weight="700" lengthAdjust="spacing" textLength="161.3486" x="286.2157" y="480.422">Separate subsystem</text><text fill="#000000" font-family="sans-serif" font-size="14" font-weight="700" lengthAdjust="spacing" textLength="187.5098" x="273.1351" y="496.7189">(not used directly here)</text></g><!--entity Ping--><g class="entity" data-qualified-name="src.lib.sounds.Ping" data-source-line="18" id="ent0003"><rect fill="#E8F5E9" height="52.5938" rx="2.5" ry="2.5" style="stroke:#181818;stroke-width:0.5;" width="145.2959" x="464.54" y="306.1269"/><text fill="#000000" font-family="sans-serif" font-size="14" font-style="italic" lengthAdjust="spacing" textLength="80.2266" x="497.0747" y="329.122">&#171;exported&#187;</text><text fill="#000000" font-family="sans-serif" font-size="14" lengthAdjust="spacing" textLength="125.2959" x="474.54" y="345.4189">pingPongBeep(...)</text></g><!--entity Ricochet--><g class="entity" data-qualified-name="src.lib.sounds.Ricochet" data-source-line="19" id="ent0004"><rect fill="#E8F5E9" height="52.5938" rx="2.5" ry="2.5" style="stroke:#181818;stroke-width:0.5;" width="144.9404" x="464.72" y="218.1269"/><text fill="#000000" font-family="sans-serif" font-size="14" font-style="italic" lengthAdjust="spacing" textLength="80.2266" x="497.0769" y="241.122">&#171;exported&#187;</text><text fill="#000000" font-family="sans-serif" font-size="14" lengthAdjust="spacing" textLength="124.9404" x="474.72" y="257.4189">ricochetSound(...)</text></g><!--entity Sfx--><g class="entity" data-qualified-name="src.lib.sounds.Sfx" data-source-line="20" id="ent0005"><rect fill="#F7F7F7" height="68.8906" rx="2.5" ry="2.5" style="stroke:#181818;stroke-width:0.5;" width="215.3232" x="699.04" y="329.9769"/><text fill="#000000" font-family="sans-serif" font-size="14" font-style="italic" lengthAdjust="spacing" textLength="56.9365" x="778.2334" y="352.972">&#171;utility&#187;</text><text fill="#000000" font-family="sans-serif" font-size="14" lengthAdjust="spacing" textLength="160.5488" x="726.4272" y="369.2689">Procedural SFX routine</text><text fill="#000000" font-family="sans-serif" font-size="14" lengthAdjust="spacing" textLength="195.3232" x="709.04" y="385.5657">(short-lived beep synthesis)</text></g><!--entity Params--><g class="entity" data-qualified-name="src.lib.sounds.Params" data-source-line="21" id="ent0006"><rect fill="#F7F7F7" height="85.1875" rx="2.5" ry="2.5" style="stroke:#181818;stroke-width:0.5;" width="162.7891" x="725.31" y="209.8369"/><text fill="#000000" font-family="sans-serif" font-size="14" font-style="italic" lengthAdjust="spacing" textLength="56.9365" x="778.2363" y="232.832">&#171;utility&#187;</text><text fill="#000000" font-family="sans-serif" font-size="14" lengthAdjust="spacing" textLength="129.7393" x="741.8349" y="249.1289">Sound parameters</text><text fill="#000000" font-family="sans-serif" font-size="14" lengthAdjust="spacing" textLength="142.7891" x="735.31" y="265.4257">frequency, duration,</text><text fill="#000000" font-family="sans-serif" font-size="14" lengthAdjust="spacing" textLength="125.1045" x="744.1523" y="281.7226">volume, envelope</text></g><!--entity Lifecycle--><g class="entity" data-qualified-name="Typical call sites.Lifecycle" data-source-line="25" id="ent0008"><rect fill="#FFF3E0" height="52.5938" rx="2.5" ry="2.5" style="stroke:#181818;stroke-width:0.5;" width="184.8213" x="98.26" y="306.1269"/><text fill="#000000" font-family="sans-serif" font-size="14" font-style="italic" lengthAdjust="spacing" textLength="72.2627" x="154.5393" y="329.122">&#171;runtime&#187;</text><text fill="#000000" font-family="sans-serif" font-size="14" lengthAdjust="spacing" textLength="164.8213" x="108.26" y="345.4189">Game / Stage callbacks</text></g><!--entity Gameplay--><g class="entity" data-qualified-name="Typical call sites.Gameplay" data-source-line="26" id="ent0009"><rect fill="#FFF3E0" height="52.5938" rx="2.5" ry="2.5" style="stroke:#181818;stroke-width:0.5;" width="173.3164" x="104.01" y="218.1269"/><text fill="#000000" font-family="sans-serif" font-size="14" font-style="italic" lengthAdjust="spacing" textLength="72.2627" x="154.5369" y="241.122">&#171;runtime&#187;</text><text fill="#000000" font-family="sans-serif" font-size="14" lengthAdjust="spacing" textLength="153.3164" x="114.01" y="257.4189">Entity / behavior logic</text></g><!--entity AudioContext--><g class="entity" data-qualified-name="Browser Web Audio API.AudioContext" data-source-line="30" id="ent0011"><rect fill="#E8F1FF" height="52.5938" rx="2.5" ry="2.5" style="stroke:#181818;stroke-width:0.5;" width="114.8828" x="1301.17" y="311.1269"/><text fill="#000000" font-family="sans-serif" font-size="14" font-style="italic" lengthAdjust="spacing" textLength="75.2295" x="1320.9967" y="334.122">&#171;external&#187;</text><text fill="#000000" font-family="sans-serif" font-size="14" lengthAdjust="spacing" textLength="94.8828" x="1311.17" y="350.4189">AudioContext</text></g><!--entity Oscillator--><g class="entity" data-qualified-name="Browser Web Audio API.Oscillator" data-source-line="31" id="ent0012"><rect fill="#E8F1FF" height="52.5938" rx="2.5" ry="2.5" style="stroke:#181818;stroke-width:0.5;" width="122.6074" x="1046.46" y="378.1269"/><text fill="#000000" font-family="sans-serif" font-size="14" font-style="italic" lengthAdjust="spacing" textLength="75.2295" x="1070.149" y="401.122">&#171;external&#187;</text><text fill="#000000" font-family="sans-serif" font-size="14" lengthAdjust="spacing" textLength="102.6074" x="1056.46" y="417.4189">OscillatorNode</text></g><!--entity Gain--><g class="entity" data-qualified-name="Browser Web Audio API.Gain" data-source-line="32" id="ent0013"><rect fill="#E8F1FF" height="52.5938" rx="2.5" ry="2.5" style="stroke:#181818;stroke-width:0.5;" width="97.2295" x="1310" y="399.1269"/><text fill="#000000" font-family="sans-serif" font-size="14" font-style="italic" lengthAdjust="spacing" textLength="75.2295" x="1321" y="422.122">&#171;external&#187;</text><text fill="#000000" font-family="sans-serif" font-size="14" lengthAdjust="spacing" textLength="68.7285" x="1324.2505" y="438.4189">GainNode</text></g><!--entity Destination--><g class="entity" data-qualified-name="Browser Web Audio API.Destination" data-source-line="33" id="ent0014"><rect fill="#E8F1FF" height="52.5938" rx="2.5" ry="2.5" style="stroke:#181818;stroke-width:0.5;" width="176.666" x="1476.06" y="355.1269"/><text fill="#000000" font-family="sans-serif" font-size="14" font-style="italic" lengthAdjust="spacing" textLength="75.2295" x="1526.7783" y="378.122">&#171;external&#187;</text><text fill="#000000" font-family="sans-serif" font-size="14" lengthAdjust="spacing" textLength="156.666" x="1486.06" y="394.4189">AudioDestinationNode</text></g><!--entity AssetManager--><g class="entity" data-qualified-name="Separate subsystem.n.not used directly here..AssetManager" data-source-line="37" id="ent0016"><rect fill="#F1F1F1" height="52.5938" rx="2.5" ry="2.5" style="stroke:#181818;stroke-width:0.5;" width="153.7793" x="113.78" y="516.1269"/><text fill="#000000" font-family="sans-serif" font-size="14" lengthAdjust="spacing" textLength="99.6338" x="140.8528" y="539.122">AssetManager</text><text fill="#000000" font-family="sans-serif" font-size="14" lengthAdjust="spacing" textLength="133.7793" x="123.78" y="555.4189">src/lib/core/loaders</text></g><!--entity AssetPipeline--><g class="entity" data-qualified-name="Separate subsystem.n.not used directly here..AssetPipeline" data-source-line="38" id="ent0017"><rect fill="#F1F1F1" height="52.5938" rx="2.5" ry="2.5" style="stroke:#181818;stroke-width:0.5;" width="165.626" x="454.37" y="516.1269"/><text fill="#000000" font-family="sans-serif" font-size="14" lengthAdjust="spacing" textLength="143.5889" x="465.3886" y="539.122">Loaded audio assets</text><text fill="#000000" font-family="sans-serif" font-size="14" lengthAdjust="spacing" textLength="145.626" x="464.37" y="555.4189">buffer playback path</text></g><g class="entity" data-qualified-name="GMN33" data-source-line="62" id="ent0034"><path d="M974.36,144.4669 L974.36,260.3966 L1241.173,260.3966 L1241.173,154.4669 L1231.173,144.4669 L974.36,144.4669" fill="#FEFFDD" style="stroke:#181818;stroke-width:0.5;"/><path d="M1231.173,144.4669 L1231.173,154.4669 L1241.173,154.4669 L1231.173,144.4669" fill="#FEFFDD" style="stroke:#181818;stroke-width:1;"/><text fill="#000000" font-family="sans-serif" font-size="13" lengthAdjust="spacing" textLength="237.6816" x="984.4257" y="161.5338">Standalone procedural audio helper.</text><text fill="#000000" font-family="sans-serif" font-size="13" lengthAdjust="spacing" textLength="4.1323" x="1101.2003" y="176.6666">&#160;</text><text fill="#000000" font-family="sans-serif" font-size="13" lengthAdjust="spacing" textLength="82.7607" x="1061.8861" y="191.7994">Current role:</text><text fill="#000000" font-family="sans-serif" font-size="13" lengthAdjust="spacing" textLength="193.0513" x="1006.7409" y="206.9322">- create a fresh audio context</text><text fill="#000000" font-family="sans-serif" font-size="13" lengthAdjust="spacing" textLength="204.1533" x="1001.1898" y="222.065">- create oscillator + gain nodes</text><text fill="#000000" font-family="sans-serif" font-size="13" lengthAdjust="spacing" textLength="190.9756" x="1007.7787" y="237.1978">- apply a very short envelope</text><text fill="#000000" font-family="sans-serif" font-size="13" lengthAdjust="spacing" textLength="245.813" x="980.36" y="252.3306">- emit a tiny synthesized sound effect</text></g><g class="entity" data-qualified-name="GMN36" data-source-line="72" id="ent0037"><path d="M6,393.7269 L6,449.1253 A0,0 0 0 0 6,449.1253 L186.72,449.1253 L190.72,515.8769 L194.72,449.1253 L375.334,449.1253 A0,0 0 0 0 375.334,449.1253 L375.334,403.7269 L365.334,393.7269 L6,393.7269 A0,0 0 0 0 6,393.7269" fill="#FEFFDD" style="stroke:#181818;stroke-width:0.5;"/><path d="M365.334,393.7269 L365.334,403.7269 L375.334,403.7269 L365.334,393.7269" fill="#FEFFDD" style="stroke:#181818;stroke-width:0.5;"/><text fill="#000000" font-family="sans-serif" font-size="13" lengthAdjust="spacing" textLength="242.9629" x="64.6855" y="410.7938">The sound helpers in `src/lib/sounds`</text><text fill="#000000" font-family="sans-serif" font-size="13" lengthAdjust="spacing" textLength="348.334" x="12" y="425.9266">are separate from the centralized asset-loading path.</text><text fill="#000000" font-family="sans-serif" font-size="13" lengthAdjust="spacing" textLength="325.7935" x="23.2703" y="441.0594">They do not depend on cached audio files to play.</text></g><g class="entity" data-qualified-name="GMN39" data-source-line="78" id="ent0040"><path d="M435.33,118.2969 L435.33,158.5625 L639.0346,158.5625 L639.0346,128.2969 L629.0346,118.2969 L435.33,118.2969" fill="#FEFFDD" style="stroke:#181818;stroke-width:0.5;"/><path d="M629.0346,118.2969 L629.0346,128.2969 L639.0346,128.2969 L629.0346,118.2969" fill="#FEFFDD" style="stroke:#181818;stroke-width:1;"/><text fill="#000000" font-family="sans-serif" font-size="13" lengthAdjust="spacing" textLength="182.7046" x="441.33" y="135.3638">High-level helper for a short</text><text fill="#000000" font-family="sans-serif" font-size="13" lengthAdjust="spacing" textLength="121.3037" x="472.0304" y="150.4966">arcade-style beep.</text></g><g class="entity" data-qualified-name="GMN42" data-source-line="83" id="ent0043"><path d="M435.33,43.2969 L435.33,83.5625 L639.0346,83.5625 L639.0346,53.2969 L629.0346,43.2969 L435.33,43.2969" fill="#FEFFDD" style="stroke:#181818;stroke-width:0.5;"/><path d="M629.0346,43.2969 L629.0346,53.2969 L639.0346,53.2969 L629.0346,43.2969" fill="#FEFFDD" style="stroke:#181818;stroke-width:1;"/><text fill="#000000" font-family="sans-serif" font-size="13" lengthAdjust="spacing" textLength="182.7046" x="441.33" y="60.3638">High-level helper for a short</text><text fill="#000000" font-family="sans-serif" font-size="13" lengthAdjust="spacing" textLength="155.5811" x="454.8918" y="75.4966">impact / ricochet effect.</text></g><!--link Lifecycle to Ping--><g class="link" data-entity-1="ent0008" data-entity-2="ent0003" data-link-type="dependency" data-source-line="41" id="lnk18"><path d="M283.53,345.5769 C340.16,345.5769 405.52,345.5769 458.12,345.5769" fill="none" id="Lifecycle-to-Ping" style="stroke:#181818;stroke-width:1;"/><polygon fill="#181818" points="464.12,345.5769,455.12,341.5769,459.12,345.5769,455.12,349.5769,464.12,345.5769" style="stroke:#181818;stroke-width:1;"/><text fill="#000000" font-family="sans-serif" font-size="13" lengthAdjust="spacing" textLength="43.0244" x="329.82" y="358.6438">invoke</text></g><!--link Gameplay to Ping--><g class="link" data-entity-1="ent0009" data-entity-2="ent0003" data-link-type="dependency" data-source-line="42" id="lnk19"><path d="M277.77,260.2069 C350.28,260.2069 441.72,260.2069 441.72,260.2069 C441.72,260.2069 441.72,332.4269 441.72,332.4269 C441.72,332.4269 445.28,332.4269 458.35,332.4269" fill="none" id="Gameplay-to-Ping" style="stroke:#181818;stroke-width:1;"/><polygon fill="#181818" points="464.35,332.4269,455.35,328.4269,459.35,332.4269,455.35,336.4269,464.35,332.4269" style="stroke:#181818;stroke-width:1;"/><text fill="#000000" font-family="sans-serif" font-size="13" lengthAdjust="spacing" textLength="43.0244" x="363.17" y="273.2738">invoke</text></g><!--link Lifecycle to Ricochet--><g class="link" data-entity-1="ent0008" data-entity-2="ent0004" data-link-type="dependency" data-source-line="43" id="lnk20"><path d="M283.47,319.2769 C357.45,319.2769 448.72,319.2769 448.72,319.2769 C448.72,319.2769 448.72,249.6869 448.72,249.6869 C448.72,249.6869 449.15,249.6869 458.54,249.6869" fill="none" id="Lifecycle-to-Ricochet" style="stroke:#181818;stroke-width:1;"/><polygon fill="#181818" points="464.54,249.6869,455.54,245.6869,459.54,249.6869,455.54,253.6869,464.54,249.6869" style="stroke:#181818;stroke-width:1;"/><text fill="#000000" font-family="sans-serif" font-size="13" lengthAdjust="spacing" textLength="43.0244" x="364.8" y="332.3438">invoke</text></g><!--link Gameplay to Ricochet--><g class="link" data-entity-1="ent0009" data-entity-2="ent0004" data-link-type="dependency" data-source-line="44" id="lnk21"><path d="M277.66,239.1669 C335.3,239.1669 404.04,239.1669 458.5,239.1669" fill="none" id="Gameplay-to-Ricochet" style="stroke:#181818;stroke-width:1;"/><polygon fill="#181818" points="464.5,239.1669,455.5,235.1669,459.5,239.1669,455.5,243.1669,464.5,239.1669" style="stroke:#181818;stroke-width:1;"/><text fill="#000000" font-family="sans-serif" font-size="13" lengthAdjust="spacing" textLength="43.0244" x="327.08" y="252.2338">invoke</text></g><!--link Ping to Params--><g class="link" data-entity-1="ent0003" data-entity-2="ent0006" data-link-type="dependency" data-source-line="46" id="lnk22"><path d="M537.72,305.9069 C537.72,294.1269 537.72,282.8769 537.72,282.8769 C537.72,282.8769 639.77,282.8769 718.9,282.8769" fill="none" id="Ping-to-Params" style="stroke:#181818;stroke-width:1;"/><polygon fill="#181818" points="724.9,282.8769,715.9,278.8769,719.9,282.8769,715.9,286.8769,724.9,282.8769" style="stroke:#181818;stroke-width:1;"/><text fill="#000000" font-family="sans-serif" font-size="13" lengthAdjust="spacing" textLength="161.4209" x="457.8" y="295.9438">choose ping-pong profile</text></g><!--link Ricochet to Params--><g class="link" data-entity-1="ent0004" data-entity-2="ent0006" data-link-type="dependency" data-source-line="47" id="lnk23"><path d="M610.12,235.6569 C645.66,235.6569 682.53,235.6569 719.16,235.6569" fill="none" id="Ricochet-to-Params" style="stroke:#181818;stroke-width:1;"/><polygon fill="#181818" points="725.16,235.6569,716.16,231.6569,720.16,235.6569,716.16,239.6569,725.16,235.6569" style="stroke:#181818;stroke-width:1;"/><text fill="#000000" font-family="sans-serif" font-size="13" lengthAdjust="spacing" textLength="148.2178" x="518.64" y="248.7238">choose ricochet profile</text></g><!--link Ping to Sfx--><g class="link" data-entity-1="ent0003" data-entity-2="ent0005" data-link-type="dependency" data-source-line="49" id="lnk24"><path d="M610.12,344.3569 C637.4,344.3569 663,344.3569 692.78,344.3569" fill="none" id="Ping-to-Sfx" style="stroke:#181818;stroke-width:1;"/><polygon fill="#181818" points="698.78,344.3569,689.78,340.3569,693.78,344.3569,689.78,348.3569,698.78,344.3569" style="stroke:#181818;stroke-width:1;"/><text fill="#000000" font-family="sans-serif" font-size="13" lengthAdjust="spacing" textLength="57.1733" x="655.45" y="340.4238">delegate</text></g><!--link Ricochet to Sfx--><g class="link" data-entity-1="ent0004" data-entity-2="ent0005" data-link-type="dependency" data-source-line="50" id="lnk25"><path d="M610.1,253.1969 C658.33,253.1969 712.72,253.1969 712.72,253.1969 C712.72,253.1969 712.72,290.9169 712.72,323.5369" fill="none" id="Ricochet-to-Sfx" style="stroke:#181818;stroke-width:1;"/><polygon fill="#181818" points="712.72,329.5369,716.72,320.5369,712.72,324.5369,708.72,320.5369,712.72,329.5369" style="stroke:#181818;stroke-width:1;"/><text fill="#000000" font-family="sans-serif" font-size="13" lengthAdjust="spacing" textLength="57.1733" x="641.59" y="266.2638">delegate</text></g><!--link Sfx to AudioContext--><g class="link" data-entity-1="ent0005" data-entity-2="ent0011" data-link-type="dependency" data-source-line="52" id="lnk26"><path d="M914.75,346.8569 C1030.4,346.8569 1203.5,346.8569 1294.81,346.8569" fill="none" id="Sfx-to-AudioContext" style="stroke:#181818;stroke-width:1;"/><polygon fill="#181818" points="1300.81,346.8569,1291.81,342.8569,1295.81,346.8569,1291.81,350.8569,1300.81,346.8569" style="stroke:#181818;stroke-width:1;"/><text fill="#000000" font-family="sans-serif" font-size="13" lengthAdjust="spacing" textLength="93.7485" x="1013.78" y="359.9238">create per call</text></g><!--link Sfx to Oscillator--><g class="link" data-entity-1="ent0005" data-entity-2="ent0012" data-link-type="dependency" data-source-line="53" id="lnk27"><path d="M914.54,388.4969 C958.75,388.4969 1002.31,388.4969 1040.17,388.4969" fill="none" id="Sfx-to-Oscillator" style="stroke:#181818;stroke-width:1;"/><polygon fill="#181818" points="1046.17,388.4969,1037.17,384.4969,1041.17,388.4969,1037.17,392.4969,1046.17,388.4969" style="stroke:#181818;stroke-width:1;"/><text fill="#000000" font-family="sans-serif" font-size="13" lengthAdjust="spacing" textLength="94.7832" x="885.36" y="401.5638">configure tone</text></g><!--link Sfx to Gain--><g class="link" data-entity-1="ent0005" data-entity-2="ent0013" data-link-type="dependency" data-source-line="54" id="lnk28"><path d="M914.77,370.9269 C1075.48,370.9269 1358.72,370.9269 1358.72,370.9269 C1358.72,370.9269 1358.72,378.9769 1358.72,392.8169" fill="none" id="Sfx-to-Gain" style="stroke:#181818;stroke-width:1;"/><polygon fill="#181818" points="1358.72,398.8169,1362.72,389.8169,1358.72,393.8169,1354.72,389.8169,1358.72,398.8169" style="stroke:#181818;stroke-width:1;"/><text fill="#000000" font-family="sans-serif" font-size="13" lengthAdjust="spacing" textLength="155.397" x="1151.69" y="371.2438">shape volume envelope</text></g><!--link Oscillator to Gain--><g class="link" data-entity-1="ent0012" data-entity-2="ent0013" data-link-type="dependency" data-source-line="55" id="lnk29"><path d="M1169.45,414.9269 C1212.68,414.9269 1263.67,414.9269 1303.76,414.9269" fill="none" id="Oscillator-to-Gain" style="stroke:#181818;stroke-width:1;"/><polygon fill="#181818" points="1309.76,414.9269,1300.76,410.9269,1304.76,414.9269,1300.76,418.9269,1309.76,414.9269" style="stroke:#181818;stroke-width:1;"/><text fill="#000000" font-family="sans-serif" font-size="13" lengthAdjust="spacing" textLength="51.8223" x="1187.61" y="427.9938">connect</text></g><!--link Gain to Destination--><g class="link" data-entity-1="ent0013" data-entity-2="ent0014" data-link-type="dependency" data-source-line="56" id="lnk30"><path d="M1407.64,403.4269 C1428.09,403.4269 1446.49,403.4269 1469.88,403.4269" fill="none" id="Gain-to-Destination" style="stroke:#181818;stroke-width:1;"/><polygon fill="#181818" points="1475.88,403.4269,1466.88,399.4269,1470.88,403.4269,1466.88,407.4269,1475.88,403.4269" style="stroke:#181818;stroke-width:1;"/><text fill="#000000" font-family="sans-serif" font-size="13" lengthAdjust="spacing" textLength="116.0161" x="1324.76" y="399.4938">connect to output</text></g><!--link AudioContext to Destination--><g class="link" data-entity-1="ent0011" data-entity-2="ent0014" data-link-type="dependency" data-source-line="57" id="lnk31"><path d="M1416.48,359.4269 C1434.91,359.4269 1449.73,359.4269 1469.82,359.4269" fill="none" id="AudioContext-to-Destination" style="stroke:#181818;stroke-width:1;"/><polygon fill="#181818" points="1475.82,359.4269,1466.82,355.4269,1470.82,359.4269,1466.82,363.4269,1475.82,359.4269" style="stroke:#181818;stroke-width:1;"/><text fill="#000000" font-family="sans-serif" font-size="13" lengthAdjust="spacing" textLength="33.5981" x="1447.15" y="355.4938">owns</text></g><!--link AssetManager to AssetPipeline--><g class="link" data-entity-1="ent0016" data-entity-2="ent0017" data-link-type="dependency" data-source-line="59" id="lnk32"><path d="M268,542.4269 C323.25,542.4269 391.51,542.4269 448.04,542.4269" fill="none" id="AssetManager-to-AssetPipeline" style="stroke:#181818;stroke-width:1;"/><polygon fill="#181818" points="454.04,542.4269,445.04,538.4269,449.04,542.4269,445.04,546.4269,454.04,542.4269" style="stroke:#181818;stroke-width:1;"/><text fill="#000000" font-family="sans-serif" font-size="13" lengthAdjust="spacing" textLength="156.2539" x="204.02" y="555.4938">manages cached assets</text></g><!--link Sfx to GMN33--><g class="link" data-entity-1="ent0005" data-entity-2="ent0034" data-link-type="association" data-source-line="62" id="lnk35"><path d="M901.72,329.7769 C901.72,291.4669 901.72,235.1169 901.72,235.1169 C901.72,235.1169 934.59,235.1169 974.08,235.1169" fill="none" id="Sfx-GMN33" style="stroke:#181818;stroke-width:1;stroke-dasharray:7,7;"/></g><!--link Ping to GMN39--><g class="link" data-entity-1="ent0003" data-entity-2="ent0040" data-link-type="association" data-source-line="78" id="lnk41"><path d="M610.33,320.5569 C613.71,320.5569 615.72,320.5569 615.72,320.5569 C615.72,320.5569 615.72,206.5969 615.72,158.9669" fill="none" id="Ping-GMN39" style="stroke:#181818;stroke-width:1;stroke-dasharray:7,7;"/></g><!--link Ricochet to GMN42--><g class="link" data-entity-1="ent0004" data-entity-2="ent0043" data-link-type="association" data-source-line="83" id="lnk44"><path d="M464.53,228.6469 C434.13,228.6469 405.72,228.6469 405.72,228.6469 C405.72,228.6469 405.72,63.4269 405.72,63.4269 C405.72,63.4269 417.93,63.4269 434.9,63.4269" fill="none" id="Ricochet-GMN42" style="stroke:#181818;stroke-width:1;stroke-dasharray:7,7;"/></g><g class="legend" data-source-line="87"><rect fill="#DDDDDD" height="79.1875" rx="7.5" ry="7.5" style="stroke:#000000;stroke-width:1;" width="358.3867" x="1326.9604" y="604.4269"/><text fill="#000000" font-family="sans-serif" font-size="14" font-weight="700" lengthAdjust="spacing" textLength="36.6816" x="1336.8344" y="624.422">Area</text><text fill="#000000" font-family="sans-serif" font-size="14" font-weight="700" lengthAdjust="spacing" textLength="34.6924" x="1456.3676" y="624.422">Role</text><text fill="#000000" font-family="sans-serif" font-size="14" lengthAdjust="spacing" textLength="110.6328" x="1336.4106" y="640.7189">`src/lib/sounds`</text><text fill="#000000" font-family="sans-serif" font-size="14" lengthAdjust="spacing" textLength="219.9531" x="1455.9438" y="640.7189">small procedural sound utilities</text><text fill="#000000" font-family="sans-serif" font-size="14" lengthAdjust="spacing" textLength="102.1836" x="1336.4106" y="657.0157">Web Audio API</text><text fill="#000000" font-family="sans-serif" font-size="14" lengthAdjust="spacing" textLength="197.7637" x="1455.9438" y="657.0157">browser playback primitives</text><text fill="#000000" font-family="sans-serif" font-size="14" lengthAdjust="spacing" textLength="98.2598" x="1336.4106" y="673.3126">Asset pipeline</text><text fill="#000000" font-family="sans-serif" font-size="14" lengthAdjust="spacing" textLength="193.8057" x="1455.9438" y="673.3126">separate loaded-audio path</text><line style="stroke:#000000;stroke-width:1;" x1="1331.9604" x2="1680.3471" y1="611.4269" y2="611.4269"/><line style="stroke:#000000;stroke-width:1;" x1="1331.9604" x2="1680.3471" y1="627.7238" y2="627.7238"/><line style="stroke:#000000;stroke-width:1;" x1="1331.9604" x2="1680.3471" y1="644.0206" y2="644.0206"/><line style="stroke:#000000;stroke-width:1;" x1="1331.9604" x2="1680.3471" y1="660.3175" y2="660.3175"/><line style="stroke:#000000;stroke-width:1;" x1="1331.9604" x2="1680.3471" y1="676.6144" y2="676.6144"/><line style="stroke:#000000;stroke-width:1;" x1="1331.9604" x2="1331.9604" y1="611.4269" y2="676.6144"/><line style="stroke:#000000;stroke-width:1;" x1="1451.4936" x2="1451.4936" y1="611.4269" y2="676.6144"/><line style="stroke:#000000;stroke-width:1;" x1="1680.3471" x2="1680.3471" y1="611.4269" y2="676.6144"/></g><?plantuml-src XLRVR-Cs37xNNq5aBtTOdMuOXct1hK3RDRS1TxlWKc1xwCCfDcqBbILFajDwo_tl8sN7FvPSXw9DRP6Vo8yVoGGLD48XAqoqse6tZSdy2cIJAGjDK5e5XHxi7jrUuPCG6lC0mO9JHHaWKmxJeAmH_b6PMZfPWIzbPf-KAI2NskFaf9Rfeonm6rgwansbAVJK8BLLRGsQy6KJhGo6jaQmBfHsSf1XBXiTxl4vN6jLc8fW8AK_wCIvA-0V0N134HMEaxwrshetR_2v9c3ChgxWgxiVrz_V_NJEgYEcPQFr3_nppiWr9gWAez5w_TtTD-Vle_YCrFrztwxNuhCGFL6my2wzfBfSTdLPn9Z731OriRonfhX1h5yjbylN2v0UDipzD9MvarEfJKiCMyOSlJxshr_mt3YROjOugM6x_XCeZq3LU32lV4ds9A0zPh2ZMC2t9fJebU-mj_apJ5YReyOu85O7YGp_O7A7VpLeqlO2-3RMryM3sLlTL7W1QFQeROrThkpcP-1J_kxRMgKKBlrgy2hWAOTlwLguX6rW1xRRaREFuEzKZccRaX8drPnxtz7Rq9B_3akvLzQ1jeLAepiZrrgsCs-ABjMsoM1nu-oJHmT_u0wkOxzTRtux2I-Ut5gIyNE8gDCNC1NGtE-3JvNMCbZtkyqwhiPNB_YzbSeC7lpmWcqCvHVqf89OfC5lycxkFgtD5hdc0S4tEz_wW1KfoTW0ZISPTPD5jr2YmzUdj7YFuRqqXEGUpB5DKklmKbkPaOmwiYPcSu1tR9NrWqwo6Gblr-GvLOIBnYeWKOPonDce6ddyS1QZD9Bagkku5IZIw2EAeUwdHtEteUNEkvuUYuWMOJlTho0jhVK8F0aIogs0sjbSqSWSlC-P7sV0O3qYSw-kQ9fgBAWuSvZ_d0b-vlSpJT8b3hckDL793JMOJGH8HjRagcWSqZOXJeysKN8hNY8quxkM7pfUJ00cjeHaI2iYFlBxgVo6OrvQDB3g9eXPkASEzibu8QRIwPASQe3CgdZcAKNY9-ir90Gf6FljQ7DcJD1eCPdKb2NJVPoWdV9Ar4JJKeZRnZaMfhCQLo8vSYY1Xg4lU-kqYtayjYCXNzCMf_mDzQ0d0rdNr3mIQ76t4EVpI6C2MAb0XvHqEypgloc9k6S0gGk8JwH_EPi-fvqDmLQSrAohxalitRfSF8aLFiqNroSXgSx-sF2v8nowCwvduY9U7VbBk7bPYTnvIyPk8RCS1Qckve2eGaV28oMiNi-rvRPPVZbcrhVubSgIQ2GQ-c0X9-Panm_5cD9CI7pyxi5hx0MuOrly3wIgQDm5MWz3mtNSJf6fcVWXIaOSVePhAYtGvqTI0Xp4uOHCE82lUA5DrDHLOFp2ndwpnK9EktxXZEFDAT81RUtEFfQL9aclyCDOi3XIiwHZd4j3zXHp5_c_?></g></svg>