<svg xmlns="http://www.w3.org/2000/svg" xmlns:xlink="http://www.w3.org/1999/xlink" contentStyleType="text/css" data-diagram-type="CLASS" height="1260px" preserveAspectRatio="none" style="width:1696px;height:1260px;background:#FFFFFF;" version="1.1" viewBox="0 0 1696 1260" width="1696px" zoomAndPan="magnify"><?plantuml 1.2026.3beta5?><defs/><g><g class="title" data-source-line="1"><text fill="#000000" font-family="sans-serif" font-size="14" font-weight="700" lengthAdjust="spacing" textLength="299.3184" x="695.2852" y="22.9951">game-lib stage runtime class diagram</text></g><!--cluster Author-facing stage layer--><g class="cluster" data-qualified-name="Author-facing stage layer" data-source-line="11" id="ent0002"><rect fill="none" height="166" rx="2.5" ry="2.5" style="stroke:#000000;stroke-width:1.5;" width="340.95" x="50.97" y="387.5669"/><text fill="#000000" font-family="sans-serif" font-size="14" font-weight="700" lengthAdjust="spacing" textLength="201.9268" x="120.4816" y="402.562">Author-facing stage layer</text></g><!--cluster Live stage runtime--><g class="cluster" data-qualified-name="Live stage runtime" data-source-line="17" id="ent0006"><rect fill="none" height="353" rx="2.5" ry="2.5" style="stroke:#000000;stroke-width:1.5;" width="810.33" x="254.05" y="577.5669"/><text fill="#000000" font-family="sans-serif" font-size="14" font-weight="700" lengthAdjust="spacing" textLength="148.4902" x="584.9699" y="592.562">Live stage runtime</text></g><!--cluster Scene / physics / rendering collaborators--><g class="cluster" data-qualified-name="Scene . physics . rendering collaborators" data-source-line="26" id="ent0013"><rect fill="none" height="199" rx="2.5" ry="2.5" style="stroke:#000000;stroke-width:1.5;" width="416.64" x="893.53" y="354.5669"/><text fill="#000000" font-family="sans-serif" font-size="14" font-weight="700" lengthAdjust="spacing" textLength="322.8887" x="940.4057" y="369.562">Scene / physics / rendering collaborators</text></g><!--cluster Entities / behaviors--><g class="cluster" data-qualified-name="Entities . behaviors" data-source-line="34" id="ent0019"><rect fill="none" height="138" rx="2.5" ry="2.5" style="stroke:#000000;stroke-width:1.5;" width="426.42" x="1151.88" y="696.5669"/><text fill="#000000" font-family="sans-serif" font-size="14" font-weight="700" lengthAdjust="spacing" textLength="152.9131" x="1288.6335" y="711.562">Entities / behaviors</text></g><!--cluster Events--><g class="cluster" data-qualified-name="Events" data-source-line="40" id="ent0023"><rect fill="none" height="91" rx="2.5" ry="2.5" style="stroke:#000000;stroke-width:1.5;" width="145.56" x="900.2" y="954.5669"/><text fill="#000000" font-family="sans-serif" font-size="14" font-weight="700" lengthAdjust="spacing" textLength="53.1768" x="946.3916" y="969.562">Events</text></g><!--class Stage--><g class="entity" data-qualified-name="Author-facing stage layer.Stage" data-source-line="12" id="ent0003"><rect fill="#F1F1F1" height="40.2656" rx="2.5" ry="2.5" style="stroke:#181818;stroke-width:0.5;" width="66.3359" x="66.97" y="497.4269"/><text fill="#000000" font-family="sans-serif" font-size="12" font-style="italic" lengthAdjust="spacing" textLength="64.3359" x="67.97" y="513.5655">&#171;wrapper&#187;</text><text fill="#000000" font-family="sans-serif" font-size="14" lengthAdjust="spacing" textLength="40.4551" x="79.9104" y="529.3907">Stage</text></g><!--class StageConfig--><g class="entity" data-qualified-name="Author-facing stage layer.StageConfig" data-source-line="13" id="ent0004"><rect fill="#F1F1F1" height="40.2656" rx="2.5" ry="2.5" style="stroke:#181818;stroke-width:0.5;" width="91.374" x="269.6" y="497.4269"/><text fill="#000000" font-family="sans-serif" font-size="12" font-style="italic" lengthAdjust="spacing" textLength="51.4043" x="289.5849" y="513.5655">&#171;config&#187;</text><text fill="#000000" font-family="sans-serif" font-size="14" lengthAdjust="spacing" textLength="85.374" x="272.6" y="529.3907">StageConfig</text></g><!--class CameraWrapper--><g class="entity" data-qualified-name="Author-facing stage layer.CameraWrapper" data-source-line="14" id="ent0005"><rect fill="#F1F1F1" height="40.2656" rx="2.5" ry="2.5" style="stroke:#181818;stroke-width:0.5;" width="121.2607" x="254.65" y="422.4269"/><text fill="#000000" font-family="sans-serif" font-size="12" font-style="italic" lengthAdjust="spacing" textLength="82.1133" x="274.2237" y="438.5655">&#171;camera api&#187;</text><text fill="#000000" font-family="sans-serif" font-size="14" lengthAdjust="spacing" textLength="115.2607" x="257.65" y="454.3907">CameraWrapper</text></g><!--class ZylemStage--><g class="entity" data-qualified-name="Live stage runtime.ZylemStage" data-source-line="18" id="ent0007"><rect fill="#F1F1F1" height="40.2656" rx="2.5" ry="2.5" style="stroke:#181818;stroke-width:0.5;" width="90.4717" x="270.05" y="612.4269"/><text fill="#000000" font-family="sans-serif" font-size="12" font-style="italic" lengthAdjust="spacing" textLength="61.9395" x="284.3161" y="628.5655">&#171;runtime&#187;</text><text fill="#000000" font-family="sans-serif" font-size="14" lengthAdjust="spacing" textLength="84.4717" x="273.05" y="644.3907">ZylemStage</text></g><!--class StageEntityDelegate--><g class="entity" data-qualified-name="Live stage runtime.StageEntityDelegate" data-source-line="19" id="ent0008"><rect fill="#F1F1F1" height="40.2656" rx="2.5" ry="2.5" style="stroke:#181818;stroke-width:0.5;" width="150.792" x="897.59" y="737.4269"/><text fill="#000000" font-family="sans-serif" font-size="12" font-style="italic" lengthAdjust="spacing" textLength="67.459" x="939.2565" y="753.5655">&#171;delegate&#187;</text><text fill="#000000" font-family="sans-serif" font-size="14" lengthAdjust="spacing" textLength="144.792" x="900.59" y="769.3907">StageEntityDelegate</text></g><!--class StageCameraDelegate--><g class="entity" data-qualified-name="Live stage runtime.StageCameraDelegate" data-source-line="20" id="ent0009"><rect fill="#F1F1F1" height="40.2656" rx="2.5" ry="2.5" style="stroke:#181818;stroke-width:0.5;" width="164.8604" x="558.2" y="612.4269"/><text fill="#000000" font-family="sans-serif" font-size="12" font-style="italic" lengthAdjust="spacing" textLength="67.459" x="606.9007" y="628.5655">&#171;delegate&#187;</text><text fill="#000000" font-family="sans-serif" font-size="14" lengthAdjust="spacing" textLength="158.8604" x="561.2" y="644.3907">StageCameraDelegate</text></g><!--class StageLoadingDelegate--><g class="entity" data-qualified-name="Live stage runtime.StageLoadingDelegate" data-source-line="21" id="ent0010"><rect fill="#F1F1F1" height="40.2656" rx="2.5" ry="2.5" style="stroke:#181818;stroke-width:0.5;" width="165.4004" x="557.93" y="874.4269"/><text fill="#000000" font-family="sans-serif" font-size="12" font-style="italic" lengthAdjust="spacing" textLength="67.459" x="606.9007" y="890.5655">&#171;delegate&#187;</text><text fill="#000000" font-family="sans-serif" font-size="14" lengthAdjust="spacing" textLength="159.4004" x="560.93" y="906.3907">StageLoadingDelegate</text></g><!--class StageEntityModelDelegate--><g class="entity" data-qualified-name="Live stage runtime.StageEntityModelDelegate" data-source-line="22" id="ent0011"><rect fill="#F1F1F1" height="40.2656" rx="2.5" ry="2.5" style="stroke:#181818;stroke-width:0.5;" width="192.8262" x="544.22" y="799.4269"/><text fill="#000000" font-family="sans-serif" font-size="12" font-style="italic" lengthAdjust="spacing" textLength="67.459" x="606.9036" y="815.5655">&#171;delegate&#187;</text><text fill="#000000" font-family="sans-serif" font-size="14" lengthAdjust="spacing" textLength="186.8262" x="547.22" y="831.3907">StageEntityModelDelegate</text></g><!--class StageDebugDelegate--><g class="entity" data-qualified-name="Live stage runtime.StageDebugDelegate" data-source-line="23" id="ent0012"><rect fill="#F1F1F1" height="40.2656" rx="2.5" ry="2.5" style="stroke:#181818;stroke-width:0.5;" width="155.96" x="562.65" y="687.4269"/><text fill="#000000" font-family="sans-serif" font-size="12" font-style="italic" lengthAdjust="spacing" textLength="67.459" x="606.9005" y="703.5655">&#171;delegate&#187;</text><text fill="#000000" font-family="sans-serif" font-size="14" lengthAdjust="spacing" textLength="149.96" x="565.65" y="719.3907">StageDebugDelegate</text></g><!--class ZylemScene--><g class="entity" data-qualified-name="Scene . physics . rendering collaborators.ZylemScene" data-source-line="27" id="ent0014"><rect fill="#F1F1F1" height="26.2969" rx="2.5" ry="2.5" style="stroke:#181818;stroke-width:0.5;" width="92.7002" x="1181.71" y="389.4169"/><text fill="#000000" font-family="sans-serif" font-size="14" lengthAdjust="spacing" textLength="86.7002" x="1184.71" y="407.412">ZylemScene</text></g><!--class ZylemWorld--><g class="entity" data-qualified-name="Scene . physics . rendering collaborators.ZylemWorld" data-source-line="28" id="ent0015"><rect fill="#F1F1F1" height="26.2969" rx="2.5" ry="2.5" style="stroke:#181818;stroke-width:0.5;" width="90.957" x="927.5" y="450.4169"/><text fill="#000000" font-family="sans-serif" font-size="14" lengthAdjust="spacing" textLength="84.957" x="930.5" y="468.412">ZylemWorld</text></g><!--class CameraManager--><g class="entity" data-qualified-name="Scene . physics . rendering collaborators.CameraManager" data-source-line="29" id="ent0016"><rect fill="#F1F1F1" height="26.2969" rx="2.5" ry="2.5" style="stroke:#181818;stroke-width:0.5;" width="122.3066" x="911.83" y="511.4169"/><text fill="#000000" font-family="sans-serif" font-size="14" lengthAdjust="spacing" textLength="116.3066" x="914.83" y="529.412">CameraManager</text></g><!--class RendererManager--><g class="entity" data-qualified-name="Scene . physics . rendering collaborators.RendererManager" data-source-line="30" id="ent0017"><rect fill="#F1F1F1" height="26.2969" rx="2.5" ry="2.5" style="stroke:#181818;stroke-width:0.5;" width="132.2051" x="1161.96" y="457.4169"/><text fill="#000000" font-family="sans-serif" font-size="14" lengthAdjust="spacing" textLength="126.2051" x="1164.96" y="475.412">RendererManager</text></g><!--class InstanceManager--><g class="entity" data-qualified-name="Scene . physics . rendering collaborators.InstanceManager" data-source-line="31" id="ent0018"><rect fill="#F1F1F1" height="26.2969" rx="2.5" ry="2.5" style="stroke:#181818;stroke-width:0.5;" width="126.9141" x="909.53" y="389.4169"/><text fill="#000000" font-family="sans-serif" font-size="14" lengthAdjust="spacing" textLength="120.9141" x="912.53" y="407.412">InstanceManager</text></g><!--class BaseNode--><g class="entity" data-qualified-name="Entities . behaviors.BaseNode" data-source-line="35" id="ent0020"><rect fill="#F1F1F1" height="26.2969" rx="2.5" ry="2.5" style="stroke:#181818;stroke-width:0.5;" width="76.6289" x="1189.75" y="731.4169"/><text fill="#000000" font-family="sans-serif" font-size="14" font-style="italic" lengthAdjust="spacing" textLength="70.6289" x="1192.75" y="749.412">BaseNode</text></g><!--class GameEntity--><g class="entity" data-qualified-name="Entities . behaviors.GameEntity" data-source-line="36" id="ent0021"><rect fill="#F1F1F1" height="26.2969" rx="2.5" ry="2.5" style="stroke:#181818;stroke-width:0.5;" width="88.5508" x="1473.75" y="731.4169"/><text fill="#000000" font-family="sans-serif" font-size="14" lengthAdjust="spacing" textLength="82.5508" x="1476.75" y="749.412">GameEntity</text></g><!--class BehaviorSystem--><g class="entity" data-qualified-name="Entities . behaviors.BehaviorSystem" data-source-line="37" id="ent0022"><rect fill="#F1F1F1" height="26.2969" rx="2.5" ry="2.5" style="stroke:#181818;stroke-width:0.5;" width="120.3721" x="1167.88" y="792.4169"/><text fill="#000000" font-family="sans-serif" font-size="14" font-style="italic" lengthAdjust="spacing" textLength="114.3721" x="1170.88" y="810.412">BehaviorSystem</text></g><!--class GameEventBus--><g class="entity" data-qualified-name="Events.GameEventBus" data-source-line="41" id="ent0024"><rect fill="#F1F1F1" height="40.2656" rx="2.5" ry="2.5" style="stroke:#181818;stroke-width:0.5;" width="113.5566" x="916.2" y="989.4269"/><text fill="#000000" font-family="sans-serif" font-size="12" font-style="italic" lengthAdjust="spacing" textLength="74.1504" x="935.9031" y="1005.5655">&#171;event bus&#187;</text><text fill="#000000" font-family="sans-serif" font-size="14" lengthAdjust="spacing" textLength="107.5566" x="919.2" y="1021.3907">GameEventBus</text></g><g class="entity" data-qualified-name="GMN51" data-source-line="78" id="ent0052"><path d="M193.31,946.8969 L193.31,1108.225 L437.2587,1108.225 L437.2587,956.8969 L427.2587,946.8969 L193.31,946.8969" fill="#FEFFDD" style="stroke:#181818;stroke-width:0.5;"/><path d="M427.2587,946.8969 L427.2587,956.8969 L437.2587,956.8969 L427.2587,946.8969" fill="#FEFFDD" style="stroke:#181818;stroke-width:1;"/><text fill="#000000" font-family="sans-serif" font-size="13" lengthAdjust="spacing" textLength="150.3062" x="199.31" y="963.9638">Author-facing wrapper.</text><text fill="#000000" font-family="sans-serif" font-size="13" lengthAdjust="spacing" textLength="4.1323" x="199.31" y="979.0966">&#160;</text><text fill="#000000" font-family="sans-serif" font-size="13" lengthAdjust="spacing" textLength="55.6499" x="199.31" y="994.2294">Collects:</text><text fill="#000000" font-family="sans-serif" font-size="13" lengthAdjust="spacing" textLength="57.2495" x="199.31" y="1009.3622">- entities</text><text fill="#000000" font-family="sans-serif" font-size="13" lengthAdjust="spacing" textLength="64.6826" x="199.31" y="1024.495">- cameras</text><text fill="#000000" font-family="sans-serif" font-size="13" lengthAdjust="spacing" textLength="126.3564" x="199.31" y="1039.6278">- lifecycle callbacks</text><text fill="#000000" font-family="sans-serif" font-size="13" lengthAdjust="spacing" textLength="107.3643" x="199.31" y="1054.7606">- input overrides</text><text fill="#000000" font-family="sans-serif" font-size="13" lengthAdjust="spacing" textLength="4.1323" x="199.31" y="1069.8935">&#160;</text><text fill="#000000" font-family="sans-serif" font-size="13" lengthAdjust="spacing" textLength="222.9487" x="199.31" y="1085.0263">The wrapper exists before the live</text><text fill="#000000" font-family="sans-serif" font-size="13" lengthAdjust="spacing" textLength="123.7793" x="199.31" y="1100.1591">runtime is created.</text></g><g class="entity" data-qualified-name="GMN54" data-source-line="91" id="ent0055"><path d="M497.26,445.5969 L497.26,561.5266 L784.0046,561.5266 L784.0046,455.5969 L774.0046,445.5969 L497.26,445.5969" fill="#FEFFDD" style="stroke:#181818;stroke-width:0.5;"/><path d="M774.0046,445.5969 L774.0046,455.5969 L784.0046,455.5969 L774.0046,445.5969" fill="#FEFFDD" style="stroke:#181818;stroke-width:1;"/><text fill="#000000" font-family="sans-serif" font-size="13" lengthAdjust="spacing" textLength="149.8936" x="503.26" y="462.6638">Live stage coordinator.</text><text fill="#000000" font-family="sans-serif" font-size="13" lengthAdjust="spacing" textLength="4.1323" x="503.26" y="477.7966">&#160;</text><text fill="#000000" font-family="sans-serif" font-size="13" lengthAdjust="spacing" textLength="40.2568" x="503.26" y="492.9294">Owns:</text><text fill="#000000" font-family="sans-serif" font-size="13" lengthAdjust="spacing" textLength="46.979" x="503.26" y="508.0622">- scene</text><text fill="#000000" font-family="sans-serif" font-size="13" lengthAdjust="spacing" textLength="97.2397" x="503.26" y="523.195">- physics world</text><text fill="#000000" font-family="sans-serif" font-size="13" lengthAdjust="spacing" textLength="265.7446" x="503.26" y="538.3278">- entity/camera/loading/debug delegates</text><text fill="#000000" font-family="sans-serif" font-size="13" lengthAdjust="spacing" textLength="221.5015" x="503.26" y="553.4606">- runtime update + teardown flow</text></g><g class="entity" data-qualified-name="GMN57" data-source-line="101" id="ent0058"><path d="M844,207.0269 L844,338.0894 A0,0 0 0 0 844,338.0894 L1038.89,338.0894 L1042.89,737.0369 L1046.89,338.0894 L1101.958,338.0894 A0,0 0 0 0 1101.958,338.0894 L1101.958,217.0269 L1091.958,207.0269 L844,207.0269 A0,0 0 0 0 844,207.0269" fill="#FEFFDD" style="stroke:#181818;stroke-width:0.5;"/><path d="M1091.958,207.0269 L1091.958,217.0269 L1101.958,217.0269 L1091.958,207.0269" fill="#FEFFDD" style="stroke:#181818;stroke-width:0.5;"/><text fill="#000000" font-family="sans-serif" font-size="13" lengthAdjust="spacing" textLength="211.2246" x="850" y="224.0938">Central entity runtime manager.</text><text fill="#000000" font-family="sans-serif" font-size="13" lengthAdjust="spacing" textLength="4.1323" x="850" y="239.2266">&#160;</text><text fill="#000000" font-family="sans-serif" font-size="13" lengthAdjust="spacing" textLength="105.5806" x="850" y="254.3594">Responsibilities:</text><text fill="#000000" font-family="sans-serif" font-size="13" lengthAdjust="spacing" textLength="209.7012" x="850" y="269.4922">- queue / spawn / remove nodes</text><text fill="#000000" font-family="sans-serif" font-size="13" lengthAdjust="spacing" textLength="197.8057" x="850" y="284.625">- maintain UUID/EID mappings</text><text fill="#000000" font-family="sans-serif" font-size="13" lengthAdjust="spacing" textLength="236.958" x="850" y="299.7578">- attach physics bodies and colliders</text><text fill="#000000" font-family="sans-serif" font-size="13" lengthAdjust="spacing" textLength="130.5522" x="850" y="314.8906">- register instancing</text><text fill="#000000" font-family="sans-serif" font-size="13" lengthAdjust="spacing" textLength="215.084" x="850" y="330.0235">- link behaviors to stage systems</text></g><g class="entity" data-qualified-name="GMN60" data-source-line="112" id="ent0061"><path d="M509.02,43.2969 L509.02,113.8281 L772.2402,113.8281 L772.2402,53.2969 L762.2402,43.2969 L509.02,43.2969" fill="#FEFFDD" style="stroke:#181818;stroke-width:0.5;"/><path d="M762.2402,43.2969 L762.2402,53.2969 L772.2402,53.2969 L762.2402,43.2969" fill="#FEFFDD" style="stroke:#181818;stroke-width:1;"/><text fill="#000000" font-family="sans-serif" font-size="13" lengthAdjust="spacing" textLength="242.2202" x="515.02" y="60.3638">Resolves the effective camera setup:</text><text fill="#000000" font-family="sans-serif" font-size="13" lengthAdjust="spacing" textLength="115.8384" x="515.02" y="75.4966">- explicit cameras</text><text fill="#000000" font-family="sans-serif" font-size="13" lengthAdjust="spacing" textLength="147.291" x="515.02" y="90.6294">- multi-camera layouts</text><text fill="#000000" font-family="sans-serif" font-size="13" lengthAdjust="spacing" textLength="162.5762" x="515.02" y="105.7622">- fallback default camera</text></g><g class="entity" data-qualified-name="GMN63" data-source-line="119" id="ent0064"><path d="M1354.17,442.8669 L1354.17,466.5669 L1294.59,470.5669 L1354.17,474.5669 L1354.17,498.2653 A0,0 0 0 0 1354.17,498.2653 L1681.8888,498.2653 A0,0 0 0 0 1681.8888,498.2653 L1681.8888,452.8669 L1671.8888,442.8669 L1354.17,442.8669 A0,0 0 0 0 1354.17,442.8669" fill="#FEFFDD" style="stroke:#181818;stroke-width:0.5;"/><path d="M1671.8888,442.8669 L1671.8888,452.8669 L1681.8888,452.8669 L1671.8888,442.8669" fill="#FEFFDD" style="stroke:#181818;stroke-width:0.5;"/><text fill="#000000" font-family="sans-serif" font-size="13" lengthAdjust="spacing" textLength="203.9883" x="1360.17" y="459.9338">Shared renderer infrastructure.</text><text fill="#000000" font-family="sans-serif" font-size="13" lengthAdjust="spacing" textLength="237.7896" x="1360.17" y="475.0666">A stage reaches it indirectly through</text><text fill="#000000" font-family="sans-serif" font-size="13" lengthAdjust="spacing" textLength="306.7188" x="1360.17" y="490.1994">CameraManager rather than owning it directly.</text></g><!--reverse link BaseNode to GameEntity--><g class="link" data-entity-1="ent0020" data-entity-2="ent0021" data-link-type="extension" data-source-line="44" id="lnk25"><path codeLine="44" d="M1284.87,748.9469 C1338.42,748.9469 1416.75,748.9469 1473.27,748.9469" fill="none" id="BaseNode-backto-GameEntity" style="stroke:#181818;stroke-width:1;"/><polygon fill="none" points="1266.87,748.9469,1284.87,754.9469,1284.87,742.9469,1266.87,748.9469" style="stroke:#181818;stroke-width:1;"/></g><!--link Stage to StageConfig--><g class="link" data-entity-1="ent0003" data-entity-2="ent0004" data-link-type="dependency" data-source-line="46" id="lnk26"><path codeLine="46" d="M133.76,517.5669 C170.16,517.5669 222.46,517.5669 263.13,517.5669" fill="none" id="Stage-to-StageConfig" style="stroke:#181818;stroke-width:1;"/><polygon fill="#181818" points="269.13,517.5669,260.13,513.5669,264.13,517.5669,260.13,521.5669,269.13,517.5669" style="stroke:#181818;stroke-width:1;"/><text fill="#000000" font-family="sans-serif" font-size="13" lengthAdjust="spacing" textLength="124.1538" x="76.45" y="530.6338">parses options into</text></g><!--link Stage to CameraWrapper--><g class="link" data-entity-1="ent0003" data-entity-2="ent0005" data-link-type="dependency" data-source-line="47" id="lnk27"><path codeLine="47" d="M133.47,507.4969 C181.08,507.4969 262.89,507.4969 262.89,507.4969 C262.89,507.4969 262.89,488.1269 262.89,469.1069" fill="none" id="Stage-to-CameraWrapper" style="stroke:#181818;stroke-width:1;"/><polygon fill="#181818" points="262.89,463.1069,258.89,472.1069,262.89,468.1069,266.89,472.1069,262.89,463.1069" style="stroke:#181818;stroke-width:1;"/><text fill="#000000" font-family="sans-serif" font-size="13" lengthAdjust="spacing" textLength="151.9883" x="68.37" y="503.5638">add / remove / activate</text></g><!--reverse link Stage to ZylemStage--><g class="link" data-entity-1="ent0003" data-entity-2="ent0007" data-link-type="composition" data-source-line="48" id="lnk28"><path codeLine="48" d="M100.89,550.1269 C100.89,583.1969 100.89,632.5669 100.89,632.5669 C100.89,632.5669 206.59,632.5669 269.55,632.5669" fill="none" id="Stage-backto-ZylemStage" style="stroke:#181818;stroke-width:1;"/><polygon fill="#181818" points="100.89,538.1269,96.89,544.1269,100.89,550.1269,104.89,544.1269,100.89,538.1269" style="stroke:#181818;stroke-width:1;"/><text fill="#000000" font-family="sans-serif" font-size="13" lengthAdjust="spacing" textLength="130.9395" x="7" y="645.6338">creates at load time</text></g><!--reverse link ZylemStage to StageEntityDelegate--><g class="link" data-entity-1="ent0007" data-entity-2="ent0008" data-link-type="composition" data-source-line="50" id="lnk29"><path codeLine="50" d="M315.89,664.9269 C315.89,700.3469 315.89,757.5669 315.89,757.5669 C315.89,757.5669 724.5,757.5669 897.29,757.5669" fill="none" id="ZylemStage-backto-StageEntityDelegate" style="stroke:#181818;stroke-width:1;"/><polygon fill="#181818" points="315.89,652.9269,311.89,658.9269,315.89,664.9269,319.89,658.9269,315.89,652.9269" style="stroke:#181818;stroke-width:1;"/></g><!--reverse link ZylemStage to StageCameraDelegate--><g class="link" data-entity-1="ent0007" data-entity-2="ent0009" data-link-type="composition" data-source-line="51" id="lnk30"><path codeLine="51" d="M372.87,636.5869 C423.76,636.5869 495.17,636.5869 557.7,636.5869" fill="none" id="ZylemStage-backto-StageCameraDelegate" style="stroke:#181818;stroke-width:1;"/><polygon fill="#181818" points="360.87,636.5869,366.87,640.5869,372.87,636.5869,366.87,632.5869,360.87,636.5869" style="stroke:#181818;stroke-width:1;"/></g><!--reverse link ZylemStage to StageLoadingDelegate--><g class="link" data-entity-1="ent0007" data-entity-2="ent0010" data-link-type="composition" data-source-line="52" id="lnk31"><path codeLine="52" d="M292.89,665.1169 C292.89,726.8869 292.89,894.5669 292.89,894.5669 C292.89,894.5669 454.92,894.5669 557.78,894.5669" fill="none" id="ZylemStage-backto-StageLoadingDelegate" style="stroke:#181818;stroke-width:1;"/><polygon fill="#181818" points="292.89,653.1169,288.89,659.1169,292.89,665.1169,296.89,659.1169,292.89,653.1169" style="stroke:#181818;stroke-width:1;"/></g><!--reverse link ZylemStage to StageEntityModelDelegate--><g class="link" data-entity-1="ent0007" data-entity-2="ent0011" data-link-type="composition" data-source-line="53" id="lnk32"><path codeLine="53" d="M372.9,644.6469 C441.66,644.6469 551.89,644.6469 551.89,644.6469 C551.89,644.6469 551.89,753.0169 551.89,799.1569" fill="none" id="ZylemStage-backto-StageEntityModelDelegate" style="stroke:#181818;stroke-width:1;"/><polygon fill="#181818" points="360.9,644.6469,366.9,648.6469,372.9,644.6469,366.9,640.6469,360.9,644.6469" style="stroke:#181818;stroke-width:1;"/></g><!--reverse link ZylemStage to StageDebugDelegate--><g class="link" data-entity-1="ent0007" data-entity-2="ent0012" data-link-type="composition" data-source-line="54" id="lnk33"><path codeLine="54" d="M338.89,665.0569 C338.89,687.2669 338.89,707.5669 338.89,707.5669 C338.89,707.5669 473.13,707.5669 562.53,707.5669" fill="none" id="ZylemStage-backto-StageDebugDelegate" style="stroke:#181818;stroke-width:1;"/><polygon fill="#181818" points="338.89,653.0569,334.89,659.0569,338.89,665.0569,342.89,659.0569,338.89,653.0569" style="stroke:#181818;stroke-width:1;"/></g><!--reverse link ZylemStage to ZylemScene--><g class="link" data-entity-1="ent0007" data-entity-2="ent0014" data-link-type="composition" data-source-line="56" id="lnk34"><path codeLine="56" d="M338.89,599.9369 C338.89,593.3369 338.89,599.7069 338.89,599.7069 C338.89,599.7069 1066.89,599.7069 1066.89,599.7069 C1066.89,599.7069 1066.89,402.5669 1066.89,402.5669 C1066.89,402.5669 1133.84,402.5669 1181.45,402.5669" fill="none" id="ZylemStage-backto-ZylemScene" style="stroke:#181818;stroke-width:1;"/><polygon fill="#181818" points="338.89,611.9369,342.89,605.9369,338.89,599.9369,334.89,605.9369,338.89,611.9369" style="stroke:#181818;stroke-width:1;"/></g><!--reverse link ZylemStage to ZylemWorld--><g class="link" data-entity-1="ent0007" data-entity-2="ent0015" data-link-type="composition" data-source-line="57" id="lnk35"><path codeLine="57" d="M292.89,600.1669 C292.89,583.3569 292.89,574.2569 292.89,574.2569 C292.89,574.2569 804.89,574.2569 804.89,574.2569 C804.89,574.2569 804.89,463.5669 804.89,463.5669 C804.89,463.5669 877.28,463.5669 927.05,463.5669" fill="none" id="ZylemStage-backto-ZylemWorld" style="stroke:#181818;stroke-width:1;"/><polygon fill="#181818" points="292.89,612.1669,296.89,606.1669,292.89,600.1669,288.89,606.1669,292.89,612.1669" style="stroke:#181818;stroke-width:1;"/></g><!--reverse link ZylemStage to InstanceManager--><g class="link" data-entity-1="ent0007" data-entity-2="ent0018" data-link-type="composition" data-source-line="58" id="lnk36"><path codeLine="58" d="M372.82,620.4869 C395.81,620.4869 406.89,620.4869 406.89,620.4869 C406.89,620.4869 406.89,402.5669 406.89,402.5669 C406.89,402.5669 761.1,402.5669 909.15,402.5669" fill="none" id="ZylemStage-backto-InstanceManager" style="stroke:#181818;stroke-width:1;"/><polygon fill="#181818" points="360.82,620.4869,366.82,624.4869,372.82,620.4869,366.82,616.4869,360.82,620.4869" style="stroke:#181818;stroke-width:1;"/></g><!--reverse link ZylemStage to CameraManager--><g class="link" data-entity-1="ent0007" data-entity-2="ent0016" data-link-type="aggregation" data-source-line="59" id="lnk37"><path codeLine="59" d="M315.89,600.1669 C315.89,588.0369 315.89,586.9769 315.89,586.9769 C315.89,586.9769 942.89,586.9769 942.89,586.9769 C942.89,586.9769 942.89,556.4669 942.89,538.1069" fill="none" id="ZylemStage-backto-CameraManager" style="stroke:#181818;stroke-width:1;"/><polygon fill="none" points="315.89,612.1669,319.89,606.1669,315.89,600.1669,311.89,606.1669,315.89,612.1669" style="stroke:#181818;stroke-width:1;"/></g><!--link StageCameraDelegate to CameraManager--><g class="link" data-entity-1="ent0009" data-entity-2="ent0016" data-link-type="dependency" data-source-line="61" id="lnk38"><path codeLine="61" d="M723.44,639.2769 C822.14,639.2769 973.89,639.2769 973.89,639.2769 C973.89,639.2769 973.89,574.5569 973.89,544.1769" fill="none" id="StageCameraDelegate-to-CameraManager" style="stroke:#181818;stroke-width:1;"/><polygon fill="#181818" points="973.89,538.1769,969.89,547.1769,973.89,543.1769,977.89,547.1769,973.89,538.1769" style="stroke:#181818;stroke-width:1;"/><text fill="#000000" font-family="sans-serif" font-size="13" lengthAdjust="spacing" textLength="206.1846" x="900.21" y="652.3438">configures effective camera set</text></g><!--link CameraWrapper to CameraManager--><g class="link" data-entity-1="ent0005" data-entity-2="ent0016" data-link-type="dependency" data-source-line="62" id="lnk39"><path codeLine="62" d="M376.3,432.6469 C529.82,432.6469 919.89,432.6469 919.89,432.6469 C919.89,432.6469 919.89,479.4369 919.89,504.9969" fill="none" id="CameraWrapper-to-CameraManager" style="stroke:#181818;stroke-width:1;"/><polygon fill="#181818" points="919.89,510.9969,923.89,501.9969,919.89,505.9969,915.89,501.9969,919.89,510.9969" style="stroke:#181818;stroke-width:1;"/><text fill="#000000" font-family="sans-serif" font-size="13" lengthAdjust="spacing" textLength="177.4741" x="509.27" y="428.7138">becomes managed camera</text></g><!--link CameraManager to RendererManager--><g class="link" data-entity-1="ent0016" data-entity-2="ent0017" data-link-type="dependency" data-source-line="63" id="lnk40"><path codeLine="63" d="M1029.89,511.0169 C1029.89,497.9769 1029.89,480.2069 1029.89,480.2069 C1029.89,480.2069 1097.95,480.2069 1155.52,480.2069" fill="none" id="CameraManager-to-RendererManager" style="stroke:#181818;stroke-width:1;"/><polygon fill="#181818" points="1161.52,480.2069,1152.52,476.2069,1156.52,480.2069,1152.52,484.2069,1161.52,480.2069" style="stroke:#181818;stroke-width:1;"/><text fill="#000000" font-family="sans-serif" font-size="13" lengthAdjust="spacing" textLength="105.4473" x="974.3" y="493.2738">renders through</text></g><!--link StageEntityDelegate to BaseNode--><g class="link" data-entity-1="ent0008" data-entity-2="ent0020" data-link-type="dependency" data-source-line="65" id="lnk41"><path codeLine="65" d="M1048.83,747.5669 C1095.09,747.5669 1146.27,747.5669 1183.42,747.5669" fill="none" id="StageEntityDelegate-to-BaseNode" style="stroke:#181818;stroke-width:1;"/><polygon fill="#181818" points="1189.42,747.5669,1180.42,743.5669,1184.42,747.5669,1180.42,751.5669,1189.42,747.5669" style="stroke:#181818;stroke-width:1;"/><text fill="#000000" font-family="sans-serif" font-size="13" lengthAdjust="spacing" textLength="101.1372" x="1120.12" y="760.6338">spawns / tracks</text></g><!--link StageEntityDelegate to GameEntity--><g class="link" data-entity-1="ent0008" data-entity-2="ent0021" data-link-type="dependency" data-source-line="66" id="lnk42"><path codeLine="66" d="M1048.6,767.7069 C1198.48,767.7069 1518.89,767.7069 1518.89,767.7069 C1518.89,767.7069 1518.89,769.1169 1518.89,764.0269" fill="none" id="StageEntityDelegate-to-GameEntity" style="stroke:#181818;stroke-width:1;"/><polygon fill="#181818" points="1518.89,758.0269,1514.89,767.0269,1518.89,763.0269,1522.89,767.0269,1518.89,758.0269" style="stroke:#181818;stroke-width:1;"/><text fill="#000000" font-family="sans-serif" font-size="13" lengthAdjust="spacing" textLength="175.3159" x="1112.58" y="780.7738">attaches physics + models</text></g><!--link StageEntityDelegate to BehaviorSystem--><g class="link" data-entity-1="ent0008" data-entity-2="ent0022" data-link-type="dependency" data-source-line="67" id="lnk43"><path codeLine="67" d="M1039.89,778.0869 C1039.89,787.2069 1039.89,795.9269 1039.89,795.9269 C1039.89,795.9269 1106.48,795.9269 1161.49,795.9269" fill="none" id="StageEntityDelegate-to-BehaviorSystem" style="stroke:#181818;stroke-width:1;"/><polygon fill="#181818" points="1167.49,795.9269,1158.49,791.9269,1162.49,795.9269,1158.49,799.9269,1167.49,795.9269" style="stroke:#181818;stroke-width:1;"/><text fill="#000000" font-family="sans-serif" font-size="13" lengthAdjust="spacing" textLength="205.4102" x="888.77" y="808.9938">auto-registers per behavior key</text></g><!--link StageEntityModelDelegate to StageEntityDelegate--><g class="link" data-entity-1="ent0011" data-entity-2="ent0008" data-link-type="dependency" data-source-line="69" id="lnk44"><path codeLine="69" d="M737.49,809.0669 C813.98,809.0669 907.89,809.0669 907.89,809.0669 C907.89,809.0669 907.89,798.3169 907.89,783.9169" fill="none" id="StageEntityModelDelegate-to-StageEntityDelegate" style="stroke:#181818;stroke-width:1;"/><polygon fill="#181818" points="907.89,777.9169,903.89,786.9169,907.89,782.9169,911.89,786.9169,907.89,777.9169" style="stroke:#181818;stroke-width:1;"/><text fill="#000000" font-family="sans-serif" font-size="13" lengthAdjust="spacing" textLength="146.561" x="839.27" y="822.1338">model-ready callbacks</text></g><!--link StageLoadingDelegate to GameEventBus--><g class="link" data-entity-1="ent0010" data-entity-2="ent0024" data-link-type="dependency" data-source-line="70" id="lnk45"><path codeLine="70" d="M723.44,894.5669 C822.14,894.5669 973.89,894.5669 973.89,894.5669 C973.89,894.5669 973.89,949.9269 973.89,983.0069" fill="none" id="StageLoadingDelegate-to-GameEventBus" style="stroke:#181818;stroke-width:1;"/><polygon fill="#181818" points="973.89,989.0069,977.89,980.0069,973.89,984.0069,969.89,980.0069,973.89,989.0069" style="stroke:#181818;stroke-width:1;"/><text fill="#000000" font-family="sans-serif" font-size="13" lengthAdjust="spacing" textLength="156.7935" x="738.88" y="907.6338">forwards loading events</text></g><!--link StageDebugDelegate to ZylemScene--><g class="link" data-entity-1="ent0012" data-entity-2="ent0014" data-link-type="dependency" data-source-line="71" id="lnk46"><path codeLine="71" d="M719.03,714.2769 C846.57,714.2769 1084.89,714.2769 1084.89,714.2769 C1084.89,714.2769 1084.89,409.1369 1084.89,409.1369 C1084.89,409.1369 1133.77,409.1369 1175.58,409.1369" fill="none" id="StageDebugDelegate-to-ZylemScene" style="stroke:#181818;stroke-width:1;"/><polygon fill="#181818" points="1181.58,409.1369,1172.58,405.1369,1176.58,409.1369,1172.58,413.1369,1181.58,409.1369" style="stroke:#181818;stroke-width:1;"/><text fill="#000000" font-family="sans-serif" font-size="13" lengthAdjust="spacing" textLength="175.1826" x="1085.89" y="709.3538">helpers / overlays / picking</text></g><!--link StageDebugDelegate to CameraManager--><g class="link" data-entity-1="ent0012" data-entity-2="ent0016" data-link-type="dependency" data-source-line="72" id="lnk47"><path codeLine="72" d="M719.01,700.8569 C825.79,700.8569 1003.89,700.8569 1003.89,700.8569 C1003.89,700.8569 1003.89,585.3869 1003.89,544.1069" fill="none" id="StageDebugDelegate-to-CameraManager" style="stroke:#181818;stroke-width:1;"/><polygon fill="#181818" points="1003.89,538.1069,999.89,547.1069,1003.89,543.1069,1007.89,547.1069,1003.89,538.1069" style="stroke:#181818;stroke-width:1;"/><text fill="#000000" font-family="sans-serif" font-size="13" lengthAdjust="spacing" textLength="126.6484" x="815.82" y="713.9238">uses active camera</text></g><!--link ZylemWorld to GameEntity--><g class="link" data-entity-1="ent0015" data-entity-2="ent0021" data-link-type="dependency" data-source-line="73" id="lnk48"><path codeLine="73" d="M1018.63,453.9169 C1113.84,453.9169 1324.89,453.9169 1324.89,453.9169 C1324.89,453.9169 1324.89,740.1769 1324.89,740.1769 C1324.89,740.1769 1410.69,740.1769 1467.72,740.1769" fill="none" id="ZylemWorld-to-GameEntity" style="stroke:#181818;stroke-width:1;"/><polygon fill="#181818" points="1473.72,740.1769,1464.72,736.1769,1468.72,740.1769,1464.72,744.1769,1473.72,740.1769" style="stroke:#181818;stroke-width:1;"/><text fill="#000000" font-family="sans-serif" font-size="13" lengthAdjust="spacing" textLength="144.5806" x="1179.89" y="531.4038">body sync + collisions</text></g><!--link InstanceManager to GameEntity--><g class="link" data-entity-1="ent0018" data-entity-2="ent0021" data-link-type="dependency" data-source-line="74" id="lnk49"><path codeLine="74" d="M1023.89,415.9369 C1023.89,443.6569 1023.89,504.8369 1023.89,504.8369 C1023.89,504.8369 1518.89,504.8369 1518.89,504.8369 C1518.89,504.8369 1518.89,674.2769 1518.89,724.9869" fill="none" id="InstanceManager-to-GameEntity" style="stroke:#181818;stroke-width:1;"/><polygon fill="#181818" points="1518.89,730.9869,1522.89,721.9869,1518.89,725.9869,1514.89,721.9869,1518.89,730.9869" style="stroke:#181818;stroke-width:1;"/><text fill="#000000" font-family="sans-serif" font-size="13" lengthAdjust="spacing" textLength="171.4883" x="1341.01" y="517.9038">batches instanced entities</text></g><!--link InstanceManager to ZylemScene--><g class="link" data-entity-1="ent0018" data-entity-2="ent0014" data-link-type="dependency" data-source-line="75" id="lnk50"><path codeLine="75" d="M1036.69,395.9869 C1081.7,395.9869 1135,395.9869 1175.59,395.9869" fill="none" id="InstanceManager-to-ZylemScene" style="stroke:#181818;stroke-width:1;"/><polygon fill="#181818" points="1181.59,395.9869,1172.59,391.9869,1176.59,395.9869,1172.59,399.9869,1181.59,395.9869" style="stroke:#181818;stroke-width:1;"/><text fill="#000000" font-family="sans-serif" font-size="13" lengthAdjust="spacing" textLength="161.4907" x="947.14" y="392.0538">writes instanced meshes</text></g><!--link Stage to GMN51--><g class="link" data-entity-1="ent0003" data-entity-2="ent0052" data-link-type="association" data-source-line="78" id="lnk53"><path d="M133.57,527.6269 C170.52,527.6269 224.89,527.6269 224.89,527.6269 C224.89,527.6269 224.89,804.8269 224.89,946.4069" fill="none" id="Stage-GMN51" style="stroke:#181818;stroke-width:1;stroke-dasharray:7,7;"/></g><!--link ZylemStage to GMN54--><g class="link" data-entity-1="ent0007" data-entity-2="ent0055" data-link-type="association" data-source-line="91" id="lnk56"><path d="M360.91,628.5369 C421.49,628.5369 520.89,628.5369 520.89,628.5369 C520.89,628.5369 520.89,594.5469 520.89,562.0269" fill="none" id="ZylemStage-GMN54" style="stroke:#181818;stroke-width:1;stroke-dasharray:7,7;"/></g><!--link StageCameraDelegate to GMN60--><g class="link" data-entity-1="ent0009" data-entity-2="ent0061" data-link-type="association" data-source-line="112" id="lnk62"><path d="M723.33,625.8569 C772.31,625.8569 824.89,625.8569 824.89,625.8569 C824.89,625.8569 824.89,78.5669 824.89,78.5669 C824.89,78.5669 802.11,78.5669 772.58,78.5669" fill="none" id="StageCameraDelegate-GMN60" style="stroke:#181818;stroke-width:1;stroke-dasharray:7,7;"/></g><g class="legend" data-source-line="124"><rect fill="#DDDDDD" height="111.7813" rx="7.5" ry="7.5" style="stroke:#000000;stroke-width:1;" width="470.6465" x="12" y="1129.225"/><text fill="#000000" font-family="sans-serif" font-size="14" font-weight="700" lengthAdjust="spacing" textLength="43.8936" x="21.874" y="1149.2201">Layer</text><text fill="#000000" font-family="sans-serif" font-size="14" font-weight="700" lengthAdjust="spacing" textLength="34.6924" x="197.5713" y="1149.2201">Role</text><text fill="#000000" font-family="sans-serif" font-size="14" lengthAdjust="spacing" textLength="40.4551" x="21.4502" y="1165.517">Stage</text><text fill="#000000" font-family="sans-serif" font-size="14" lengthAdjust="spacing" textLength="253.7363" x="197.1475" y="1165.517">author-facing configuration wrapper</text><text fill="#000000" font-family="sans-serif" font-size="14" lengthAdjust="spacing" textLength="84.4717" x="21.4502" y="1181.8139">ZylemStage</text><text fill="#000000" font-family="sans-serif" font-size="14" lengthAdjust="spacing" textLength="175.1436" x="197.1475" y="1181.8139">live runtime orchestrator</text><text fill="#000000" font-family="sans-serif" font-size="14" lengthAdjust="spacing" textLength="70.7588" x="21.4502" y="1198.1107">Delegates</text><text fill="#000000" font-family="sans-serif" font-size="14" lengthAdjust="spacing" textLength="185.582" x="197.1475" y="1198.1107">focused stage subsystems</text><text fill="#000000" font-family="sans-serif" font-size="14" lengthAdjust="spacing" textLength="165.7988" x="21.4502" y="1214.4076">Scene / World / Camera</text><text fill="#000000" font-family="sans-serif" font-size="14" lengthAdjust="spacing" textLength="236.9609" x="197.1475" y="1214.4076">rendering + physics collaborators</text><text fill="#000000" font-family="sans-serif" font-size="14" lengthAdjust="spacing" textLength="166.7969" x="21.4502" y="1230.7045">BaseNode / GameEntity</text><text fill="#000000" font-family="sans-serif" font-size="14" lengthAdjust="spacing" textLength="276.0488" x="197.1475" y="1230.7045">runtime content managed by the stage</text><line style="stroke:#000000;stroke-width:1;" x1="17" x2="477.6465" y1="1136.225" y2="1136.225"/><line style="stroke:#000000;stroke-width:1;" x1="17" x2="477.6465" y1="1152.5219" y2="1152.5219"/><line style="stroke:#000000;stroke-width:1;" x1="17" x2="477.6465" y1="1168.8188" y2="1168.8188"/><line style="stroke:#000000;stroke-width:1;" x1="17" x2="477.6465" y1="1185.1156" y2="1185.1156"/><line style="stroke:#000000;stroke-width:1;" x1="17" x2="477.6465" y1="1201.4125" y2="1201.4125"/><line style="stroke:#000000;stroke-width:1;" x1="17" x2="477.6465" y1="1217.7094" y2="1217.7094"/><line style="stroke:#000000;stroke-width:1;" x1="17" x2="477.6465" y1="1234.0063" y2="1234.0063"/><line style="stroke:#000000;stroke-width:1;" x1="17" x2="17" y1="1136.225" y2="1234.0063"/><line style="stroke:#000000;stroke-width:1;" x1="192.6973" x2="192.6973" y1="1136.225" y2="1234.0063"/><line style="stroke:#000000;stroke-width:1;" x1="477.6465" x2="477.6465" y1="1136.225" y2="1234.0063"/></g><?plantuml-src ZLTDRzms4BtpLn0vrbXlpmlNW3-2me3J0dQ30BrHqcX5c19Lal96xVQ_zmr5QILvdVeGH4lESBxUcna77Gp9lQffOtGcVL1xagvhWgv9vaPvBmkjzaxLGXWgWmnMEhsl0euTvK7RHlWNtRGA8j9Ngh07tUnbgOodsKshyXSy_Hnwc6D5rUpDNC3eXaBVahGkL7Ps4Psu2S7fh0lqaDlcMVzDycTHwO8arMtePKrrHiuFHxbsEPuMoQJyTDFXHRSfLSwU3I4QrPFx9FyHCaNv78-lhWvEjIsvw-lbpPrjIht7VHu_PjTto9rJtmOr5eY_fMerXFwTkV6eNscPuBdzFv6OUdGYtQ-T-8pJqD-JeRqAB5UappVUHXy-8FXeLO6aV41oiFt5ulu3qlUKTU-yEa_9SquDoQrigzxhtEFBKLEGuphbrXYLMQU2TVvjfbXpUVJDEbEiol95DJ3afjEd-3ovzVb3Wy8qEOtdSoTZv9hOkumgzQedVrJcWrDvI8_SAa-_8K7Jgx_2Xo5lED9D80SCahnDhpptFb2zjFLAJLX46z_WqzlE8v74dpBh_939qQIyEcusStjYWD9cSxt0xmv4T1wns9QfwzahEvDTWdadLL74ejJsbUk4MFKhofWqVeBD6MvtCdU4MozLa0R8aWnY8MOYh746ocT5bY0-AxA2xmyiBO1xLcu1sJTEpq1txcR0tkfc3QhPjSNr4g7Y775F9KbYdEDOoSuXpLIMt89HcjHqF0MnBE6v5pBARGtrEfuKILainLXnnHQe3lJqCbJETligURtgIwmw0NCdVQiE3RE7kVBYtrKvePU15uBAApWvjeOBMNC9trTViegVw8BTEDfh_8RBd8sHl_A5-eNloxusiMPbPZVuW4TLqIDjncIdYDQjT0ff9EzEbjOTb2jy90VtkCZcfBzicQnzmXnqAp8jXx6LeAB3-EBFLkUOa_lt7bWNlcFcgpbYn0czRskGMKJf-oP7yhaRQyyjGwnWVKPFXLWwdGGBIQc5djLTX7bmEYnK0LIy9KHZ4TImUTXog8vO3lOqkI-5k8Ep88RVYSt9z2Q5p5z6WpWzjeHP4JSmsdOXfjTXZu3DFoeQNvNq7JZoG12AIC0_LWYaKOohalQf-HMN0XoHxExQwHF_nMmNoArr00EFERZ-EwZ2RllOQZOJ_0-nmQHm-kqGoZRXQ5jmwUKuP3cMqQ-kBHWD5p8Ga6SFZIoDFQnTp6m8jfuIkshETp3gb4csfwU7zi5EFv5lWGoTQHDppG7yrL778oEo_pH36bj4_sg5oOD_yklNX_ljvuTxdBGjOk7BWVnJxC0XZry5doCCkGDnY8dQ8rYO25pQvkKqftbT7TBiOrlm_nFvQkOWC6jUoSTwd-ksNHinzhqrEjTXXh2wCq5laY3OQhl0nsM26sfLAeYCD7mFCkjzvRbI3gHmwHYXbx0NN9S7J8HBSJCkc3HqJ_Yacs5JD_tKjPTz0HjMXVz2fHe9W32LzBZUctuEPsI5V_3V0UBuYtpa7LhYuyc2IKTnJ4lqaLllZ9ZZn5AySao4OldPH3n6FatWiexz3t7xYw9ZJJmaIvkZbHLZPRii5NVm8UsKGrFRfYO8hTDgUJ51Qx5aHlLfS6tdJUru-fl8Oe_32ZOEpwoFu1XSENAoXYpz1m00?></g></svg>