<svg xmlns="http://www.w3.org/2000/svg" xmlns:xlink="http://www.w3.org/1999/xlink" contentStyleType="text/css" data-diagram-type="CLASS" height="971px" preserveAspectRatio="none" style="width:2194px;height:971px;background:#FFFFFF;" version="1.1" viewBox="0 0 2194 971" width="2194px" zoomAndPan="magnify"><?plantuml 1.2026.3beta5?><defs/><g><g class="title" data-source-line="1"><text fill="#000000" font-family="sans-serif" font-size="14" font-weight="700" lengthAdjust="spacing" textLength="403.0537" x="892.3281" y="22.9951">game-lib core: BaseNode lifecycle and composition</text></g><!--cluster src/lib/core/base-node--><g class="cluster" data-qualified-name="src.lib.core.base-node" data-source-line="11" id="ent0004"><rect fill="none" height="591.64" rx="2.5" ry="2.5" style="stroke:#000000;stroke-width:1.5;" width="428" x="981.71" y="159.5669"/><text fill="#000000" font-family="sans-serif" font-size="14" font-weight="700" lengthAdjust="spacing" textLength="175.0205" x="1108.1997" y="174.562">src/lib/core/base-node</text></g><!--cluster ts--><g class="cluster" data-qualified-name="src.lib.core.base-node.ts" data-source-line="10" id="ent0002"><rect fill="none" height="524.64" rx="2.5" ry="2.5" style="stroke:#000000;stroke-width:1.5;" width="380" x="1005.71" y="202.5669"/><text fill="#000000" font-family="sans-serif" font-size="14" font-weight="700" lengthAdjust="spacing" textLength="15.0254" x="1188.1973" y="217.562">ts</text></g><!--cluster src/lib/core/base-node-life-cycle--><g class="cluster" data-qualified-name="src.lib.core.base-node-life-cycle" data-source-line="41" id="ent0008"><rect fill="none" height="182.56" rx="2.5" ry="2.5" style="stroke:#000000;stroke-width:1.5;" width="1801" x="379.71" y="775.2069"/><text fill="#000000" font-family="sans-serif" font-size="14" font-weight="700" lengthAdjust="spacing" textLength="251.8428" x="1154.2886" y="790.202">src/lib/core/base-node-life-cycle</text></g><!--cluster ts--><g class="cluster" data-qualified-name="src.lib.core.base-node-life-cycle.ts" data-source-line="40" id="ent0006"><rect fill="none" height="115.56" rx="2.5" ry="2.5" style="stroke:#000000;stroke-width:1.5;" width="1753" x="403.71" y="818.2069"/><text fill="#000000" font-family="sans-serif" font-size="14" font-weight="700" lengthAdjust="spacing" textLength="15.0254" x="1272.6973" y="833.202">ts</text></g><!--cluster runtime collaborators--><g class="cluster" data-qualified-name="runtime collaborators" data-source-line="56" id="ent0018"><rect fill="none" height="91.27" rx="2.5" ry="2.5" style="stroke:#000000;stroke-width:1.5;" width="360" x="963.71" y="44.2969"/><text fill="#000000" font-family="sans-serif" font-size="14" font-weight="700" lengthAdjust="spacing" textLength="171.7871" x="1057.8164" y="59.292">runtime collaborators</text></g><!--cluster downstream node types--><g class="cluster" data-qualified-name="downstream node types" data-source-line="61" id="ent0021"><rect fill="none" height="91.27" rx="2.5" ry="2.5" style="stroke:#000000;stroke-width:1.5;" width="206" x="1433.71" y="218.7269"/><text fill="#000000" font-family="sans-serif" font-size="14" font-weight="700" lengthAdjust="spacing" textLength="190.5176" x="1441.4512" y="233.722">downstream node types</text></g><!--class BaseNode--><g class="entity" data-qualified-name="src.lib.core.base-node.ts.BaseNode" data-source-line="11" id="ent0003"><rect fill="#F1F1F1" height="341.0469" rx="2.5" ry="2.5" style="stroke:#181818;stroke-width:0.5;" width="312.5693" x="1021.43" y="370.1569"/><ellipse cx="1138.1502" cy="386.1569" fill="#ADD1B2" rx="11" ry="11" style="stroke:#181818;stroke-width:1;"/><path d="M1141.119,391.7975 Q1140.5408,392.0944 1139.9002,392.235 Q1139.2596,392.3913 1138.5565,392.3913 Q1136.0565,392.3913 1134.7283,390.7506 Q1133.4158,389.0944 1133.4158,385.9694 Q1133.4158,382.8444 1134.7283,381.1881 Q1136.0565,379.5319 1138.5565,379.5319 Q1139.2596,379.5319 1139.9002,379.6881 Q1140.5565,379.8444 1141.119,380.1413 L1141.119,382.86 Q1140.494,382.2819 1139.9002,382.0163 Q1139.3065,381.735 1138.6815,381.735 Q1137.3377,381.735 1136.6502,382.8131 Q1135.9627,383.8756 1135.9627,385.9694 Q1135.9627,388.0631 1136.6502,389.1413 Q1137.3377,390.2038 1138.6815,390.2038 Q1139.3065,390.2038 1139.9002,389.9381 Q1140.494,389.6569 1141.119,389.0788 L1141.119,391.7975 Z " fill="#000000"/><text fill="#000000" font-family="sans-serif" font-size="14" lengthAdjust="spacing" textLength="70.6289" x="1158.6502" y="391.0036">BaseNode</text><line style="stroke:#181818;stroke-width:0.5;" x1="1022.43" x2="1332.9993" y1="402.1569" y2="402.1569"/><text fill="#000000" font-family="sans-serif" font-size="14" lengthAdjust="spacing" textLength="137.7236" x="1027.43" y="419.152">+parent: BaseNode</text><text fill="#000000" font-family="sans-serif" font-size="14" lengthAdjust="spacing" textLength="158.9287" x="1027.43" y="435.4489">+children: BaseNode[]</text><line style="stroke:#181818;stroke-width:1;" x1="1022.43" x2="1332.9993" y1="442.7506" y2="442.7506"/><text fill="#000000" font-family="sans-serif" font-size="14" lengthAdjust="spacing" textLength="196.752" x="1027.43" y="459.7457">+add(child: BaseNode): this</text><text fill="#000000" font-family="sans-serif" font-size="14" lengthAdjust="spacing" textLength="223.8701" x="1027.43" y="476.0426">+remove(child: BaseNode): this</text><text fill="#000000" font-family="sans-serif" font-size="14" lengthAdjust="spacing" textLength="140.0889" x="1027.43" y="492.3395">+clone(): BaseNode</text><line style="stroke:#181818;stroke-width:1;" x1="1022.43" x2="1332.9993" y1="499.6413" y2="499.6413"/><text fill="#000000" font-family="sans-serif" font-size="14" lengthAdjust="spacing" textLength="239.5859" x="1027.43" y="516.6364">+onSetup(fn: SetupFunction): this</text><text fill="#000000" font-family="sans-serif" font-size="14" lengthAdjust="spacing" textLength="260.75" x="1027.43" y="532.9332">+onLoaded(fn: LoadedFunction): this</text><text fill="#000000" font-family="sans-serif" font-size="14" lengthAdjust="spacing" textLength="259.4922" x="1027.43" y="549.2301">+onUpdate(fn: UpdateFunction): this</text><text fill="#000000" font-family="sans-serif" font-size="14" lengthAdjust="spacing" textLength="267.6543" x="1027.43" y="565.527">+onDestroy(fn: DestroyFunction): this</text><text fill="#000000" font-family="sans-serif" font-size="14" lengthAdjust="spacing" textLength="273.0684" x="1027.43" y="581.8239">+onCleanup(fn: CleanupFunction): this</text><text fill="#000000" font-family="sans-serif" font-size="14" lengthAdjust="spacing" textLength="280.6631" x="1027.43" y="598.1207">+prependSetup(fn: SetupFunction): this</text><text fill="#000000" font-family="sans-serif" font-size="14" lengthAdjust="spacing" textLength="300.5693" x="1027.43" y="614.4176">+prependUpdate(fn: UpdateFunction): this</text><line style="stroke:#181818;stroke-width:1;" x1="1022.43" x2="1332.9993" y1="621.7194" y2="621.7194"/><text fill="#000000" font-family="sans-serif" font-size="14" lengthAdjust="spacing" textLength="263.6143" x="1027.43" y="638.7145">+nodeSetup(ctx: SetupContext): void</text><text fill="#000000" font-family="sans-serif" font-size="14" lengthAdjust="spacing" textLength="284.7783" x="1027.43" y="655.0114">+nodeLoaded(ctx: LoadedContext): void</text><text fill="#000000" font-family="sans-serif" font-size="14" lengthAdjust="spacing" textLength="283.5205" x="1027.43" y="671.3082">+nodeUpdate(ctx: UpdateContext): void</text><text fill="#000000" font-family="sans-serif" font-size="14" lengthAdjust="spacing" textLength="291.6826" x="1027.43" y="687.6051">+nodeDestroy(ctx: DestroyContext): void</text><text fill="#000000" font-family="sans-serif" font-size="14" lengthAdjust="spacing" textLength="297.0967" x="1027.43" y="703.902">+nodeCleanup(ctx: CleanupContext): void</text></g><!--class Vessel--><g class="entity" data-qualified-name="src.lib.core.base-node.ts.Vessel" data-source-line="34" id="ent0005"><rect fill="#F1F1F1" height="72.5938" rx="2.5" ry="2.5" style="stroke:#181818;stroke-width:0.5;" width="208.752" x="1161.34" y="237.5669"/><ellipse cx="1238.8254" cy="253.5669" fill="#ADD1B2" rx="11" ry="11" style="stroke:#181818;stroke-width:1;"/><path d="M1241.7941,259.2075 Q1241.216,259.5044 1240.5754,259.645 Q1239.9347,259.8013 1239.2316,259.8013 Q1236.7316,259.8013 1235.4035,258.1606 Q1234.091,256.5044 1234.091,253.3794 Q1234.091,250.2544 1235.4035,248.5981 Q1236.7316,246.9419 1239.2316,246.9419 Q1239.9347,246.9419 1240.5754,247.0981 Q1241.2316,247.2544 1241.7941,247.5512 L1241.7941,250.27 Q1241.1691,249.6919 1240.5754,249.4262 Q1239.9816,249.145 1239.3566,249.145 Q1238.0129,249.145 1237.3254,250.2231 Q1236.6379,251.2856 1236.6379,253.3794 Q1236.6379,255.4731 1237.3254,256.5513 Q1238.0129,257.6138 1239.3566,257.6138 Q1239.9816,257.6138 1240.5754,257.3481 Q1241.1691,257.0669 1241.7941,256.4888 L1241.7941,259.2075 Z " fill="#000000"/><text fill="#000000" font-family="sans-serif" font-size="14" lengthAdjust="spacing" textLength="45.2813" x="1259.3254" y="258.4136">Vessel</text><line style="stroke:#181818;stroke-width:0.5;" x1="1162.34" x2="1369.092" y1="269.5669" y2="269.5669"/><text fill="#000000" font-family="sans-serif" font-size="14" lengthAdjust="spacing" textLength="196.752" x="1167.34" y="286.562">+add(child: BaseNode): this</text><text fill="#000000" font-family="sans-serif" font-size="14" lengthAdjust="spacing" textLength="114.7412" x="1167.34" y="302.8589">+clone(): Vessel</text></g><!--class SetupContext--><g class="entity" data-qualified-name="src.lib.core.base-node-life-cycle.ts.SetupContext" data-source-line="41" id="ent0007"><rect fill="#F1F1F1" height="40.2656" rx="2.5" ry="2.5" style="stroke:#181818;stroke-width:0.5;" width="127.8398" x="419.79" y="865.3569"/><ellipse cx="434.79" cy="885.4897" fill="#ADD1B2" rx="11" ry="11" style="stroke:#181818;stroke-width:1;"/><path d="M437.7588,891.1303 Q437.1806,891.4272 436.54,891.5678 Q435.8994,891.7241 435.1963,891.7241 Q432.6963,891.7241 431.3681,890.0834 Q430.0556,888.4272 430.0556,885.3022 Q430.0556,882.1772 431.3681,880.5209 Q432.6963,878.8647 435.1963,878.8647 Q435.8994,878.8647 436.54,879.0209 Q437.1963,879.1772 437.7588,879.4741 L437.7588,882.1928 Q437.1338,881.6147 436.54,881.3491 Q435.9463,881.0678 435.3213,881.0678 Q433.9775,881.0678 433.29,882.1459 Q432.6025,883.2084 432.6025,885.3022 Q432.6025,887.3959 433.29,888.4741 Q433.9775,889.5366 435.3213,889.5366 Q435.9463,889.5366 436.54,889.2709 Q437.1338,888.9897 437.7588,888.4116 L437.7588,891.1303 Z " fill="#000000"/><text fill="#000000" font-family="sans-serif" font-size="12" font-style="italic" lengthAdjust="spacing" textLength="41.4902" x="475.9648" y="881.4955">&#171;type&#187;</text><text fill="#000000" font-family="sans-serif" font-size="14" lengthAdjust="spacing" textLength="95.8398" x="448.79" y="897.3207">SetupContext</text></g><!--class LoadedContext--><g class="entity" data-qualified-name="src.lib.core.base-node-life-cycle.ts.LoadedContext" data-source-line="42" id="ent0009"><rect fill="#F1F1F1" height="40.2656" rx="2.5" ry="2.5" style="stroke:#181818;stroke-width:0.5;" width="138.4219" x="582.5" y="865.3569"/><ellipse cx="597.5" cy="885.4897" fill="#ADD1B2" rx="11" ry="11" style="stroke:#181818;stroke-width:1;"/><path d="M600.4688,891.1303 Q599.8906,891.4272 599.25,891.5678 Q598.6094,891.7241 597.9063,891.7241 Q595.4063,891.7241 594.0781,890.0834 Q592.7656,888.4272 592.7656,885.3022 Q592.7656,882.1772 594.0781,880.5209 Q595.4063,878.8647 597.9063,878.8647 Q598.6094,878.8647 599.25,879.0209 Q599.9063,879.1772 600.4688,879.4741 L600.4688,882.1928 Q599.8438,881.6147 599.25,881.3491 Q598.6563,881.0678 598.0313,881.0678 Q596.6875,881.0678 596,882.1459 Q595.3125,883.2084 595.3125,885.3022 Q595.3125,887.3959 596,888.4741 Q596.6875,889.5366 598.0313,889.5366 Q598.6563,889.5366 599.25,889.2709 Q599.8438,888.9897 600.4688,888.4116 L600.4688,891.1303 Z " fill="#000000"/><text fill="#000000" font-family="sans-serif" font-size="12" font-style="italic" lengthAdjust="spacing" textLength="41.4902" x="643.9658" y="881.4955">&#171;type&#187;</text><text fill="#000000" font-family="sans-serif" font-size="14" lengthAdjust="spacing" textLength="106.4219" x="611.5" y="897.3207">LoadedContext</text></g><!--class UpdateContext--><g class="entity" data-qualified-name="src.lib.core.base-node-life-cycle.ts.UpdateContext" data-source-line="43" id="ent0010"><rect fill="#F1F1F1" height="64.5625" rx="2.5" ry="2.5" style="stroke:#181818;stroke-width:0.5;" width="137.793" x="755.82" y="853.2069"/><ellipse cx="770.82" cy="873.3397" fill="#ADD1B2" rx="11" ry="11" style="stroke:#181818;stroke-width:1;"/><path d="M773.7888,878.9803 Q773.2106,879.2772 772.57,879.4178 Q771.9294,879.5741 771.2263,879.5741 Q768.7263,879.5741 767.3981,877.9334 Q766.0856,876.2772 766.0856,873.1522 Q766.0856,870.0272 767.3981,868.3709 Q768.7263,866.7147 771.2263,866.7147 Q771.9294,866.7147 772.57,866.8709 Q773.2263,867.0272 773.7888,867.3241 L773.7888,870.0428 Q773.1638,869.4647 772.57,869.1991 Q771.9763,868.9178 771.3513,868.9178 Q770.0075,868.9178 769.32,869.9959 Q768.6325,871.0584 768.6325,873.1522 Q768.6325,875.2459 769.32,876.3241 Q770.0075,877.3866 771.3513,877.3866 Q771.9763,877.3866 772.57,877.1209 Q773.1638,876.8397 773.7888,876.2616 L773.7888,878.9803 Z " fill="#000000"/><text fill="#000000" font-family="sans-serif" font-size="12" font-style="italic" lengthAdjust="spacing" textLength="41.4902" x="816.9714" y="869.3455">&#171;type&#187;</text><text fill="#000000" font-family="sans-serif" font-size="14" lengthAdjust="spacing" textLength="105.793" x="784.82" y="885.1707">UpdateContext</text><line style="stroke:#181818;stroke-width:0.5;" x1="756.82" x2="892.613" y1="893.4725" y2="893.4725"/><text fill="#000000" font-family="sans-serif" font-size="14" lengthAdjust="spacing" textLength="110.9951" x="761.82" y="910.4676">+delta: number</text></g><!--class DestroyContext--><g class="entity" data-qualified-name="src.lib.core.base-node-life-cycle.ts.DestroyContext" data-source-line="46" id="ent0011"><rect fill="#F1F1F1" height="40.2656" rx="2.5" ry="2.5" style="stroke:#181818;stroke-width:0.5;" width="141.874" x="928.78" y="865.3569"/><ellipse cx="943.78" cy="885.4897" fill="#ADD1B2" rx="11" ry="11" style="stroke:#181818;stroke-width:1;"/><path d="M946.7488,891.1303 Q946.1706,891.4272 945.53,891.5678 Q944.8894,891.7241 944.1863,891.7241 Q941.6863,891.7241 940.3581,890.0834 Q939.0456,888.4272 939.0456,885.3022 Q939.0456,882.1772 940.3581,880.5209 Q941.6863,878.8647 944.1863,878.8647 Q944.8894,878.8647 945.53,879.0209 Q946.1863,879.1772 946.7488,879.4741 L946.7488,882.1928 Q946.1238,881.6147 945.53,881.3491 Q944.9363,881.0678 944.3113,881.0678 Q942.9675,881.0678 942.28,882.1459 Q941.5925,883.2084 941.5925,885.3022 Q941.5925,887.3959 942.28,888.4741 Q942.9675,889.5366 944.3113,889.5366 Q944.9363,889.5366 945.53,889.2709 Q946.1238,888.9897 946.7488,888.4116 L946.7488,891.1303 Z " fill="#000000"/><text fill="#000000" font-family="sans-serif" font-size="12" font-style="italic" lengthAdjust="spacing" textLength="41.4902" x="991.9719" y="881.4955">&#171;type&#187;</text><text fill="#000000" font-family="sans-serif" font-size="14" lengthAdjust="spacing" textLength="109.874" x="957.78" y="897.3207">DestroyContext</text></g><!--class CleanupContext--><g class="entity" data-qualified-name="src.lib.core.base-node-life-cycle.ts.CleanupContext" data-source-line="47" id="ent0012"><rect fill="#F1F1F1" height="40.2656" rx="2.5" ry="2.5" style="stroke:#181818;stroke-width:0.5;" width="144.5811" x="1105.42" y="865.3569"/><ellipse cx="1120.42" cy="885.4897" fill="#ADD1B2" rx="11" ry="11" style="stroke:#181818;stroke-width:1;"/><path d="M1123.3888,891.1303 Q1122.8106,891.4272 1122.17,891.5678 Q1121.5294,891.7241 1120.8263,891.7241 Q1118.3263,891.7241 1116.9981,890.0834 Q1115.6856,888.4272 1115.6856,885.3022 Q1115.6856,882.1772 1116.9981,880.5209 Q1118.3263,878.8647 1120.8263,878.8647 Q1121.5294,878.8647 1122.17,879.0209 Q1122.8263,879.1772 1123.3888,879.4741 L1123.3888,882.1928 Q1122.7638,881.6147 1122.17,881.3491 Q1121.5763,881.0678 1120.9513,881.0678 Q1119.6075,881.0678 1118.92,882.1459 Q1118.2325,883.2084 1118.2325,885.3022 Q1118.2325,887.3959 1118.92,888.4741 Q1119.6075,889.5366 1120.9513,889.5366 Q1121.5763,889.5366 1122.17,889.2709 Q1122.7638,888.9897 1123.3888,888.4116 L1123.3888,891.1303 Z " fill="#000000"/><text fill="#000000" font-family="sans-serif" font-size="12" font-style="italic" lengthAdjust="spacing" textLength="41.4902" x="1169.9654" y="881.4955">&#171;type&#187;</text><text fill="#000000" font-family="sans-serif" font-size="14" lengthAdjust="spacing" textLength="112.5811" x="1134.42" y="897.3207">CleanupContext</text></g><!--class SetupFunction--><g class="entity" data-qualified-name="src.lib.core.base-node-life-cycle.ts.SetupFunction" data-source-line="49" id="ent0013"><rect fill="#F1F1F1" height="40.2656" rx="2.5" ry="2.5" style="stroke:#181818;stroke-width:0.5;" width="133.0625" x="1285.18" y="865.3569"/><ellipse cx="1300.18" cy="885.4897" fill="#B4A7E5" rx="11" ry="11" style="stroke:#181818;stroke-width:1;"/><path d="M1296.1019,881.2553 L1296.1019,879.0991 L1303.4925,879.0991 L1303.4925,881.2553 L1301.0238,881.2553 L1301.0238,889.3334 L1303.4925,889.3334 L1303.4925,891.4897 L1296.1019,891.4897 L1296.1019,889.3334 L1298.5706,889.3334 L1298.5706,881.2553 L1296.1019,881.2553 Z " fill="#000000"/><text fill="#000000" font-family="sans-serif" font-size="12" font-style="italic" lengthAdjust="spacing" textLength="63.8203" x="1332.8011" y="881.4955">&#171;callback&#187;</text><text fill="#000000" font-family="sans-serif" font-size="14" font-style="italic" lengthAdjust="spacing" textLength="101.0625" x="1314.18" y="897.3207">SetupFunction</text></g><!--class LoadedFunction--><g class="entity" data-qualified-name="src.lib.core.base-node-life-cycle.ts.LoadedFunction" data-source-line="50" id="ent0014"><rect fill="#F1F1F1" height="40.2656" rx="2.5" ry="2.5" style="stroke:#181818;stroke-width:0.5;" width="143.6445" x="1452.89" y="865.3569"/><ellipse cx="1467.89" cy="885.4897" fill="#B4A7E5" rx="11" ry="11" style="stroke:#181818;stroke-width:1;"/><path d="M1463.8119,881.2553 L1463.8119,879.0991 L1471.2025,879.0991 L1471.2025,881.2553 L1468.7338,881.2553 L1468.7338,889.3334 L1471.2025,889.3334 L1471.2025,891.4897 L1463.8119,891.4897 L1463.8119,889.3334 L1466.2806,889.3334 L1466.2806,881.2553 L1463.8119,881.2553 Z " fill="#000000"/><text fill="#000000" font-family="sans-serif" font-size="12" font-style="italic" lengthAdjust="spacing" textLength="63.8203" x="1505.8021" y="881.4955">&#171;callback&#187;</text><text fill="#000000" font-family="sans-serif" font-size="14" font-style="italic" lengthAdjust="spacing" textLength="111.6445" x="1481.89" y="897.3207">LoadedFunction</text></g><!--class UpdateFunction--><g class="entity" data-qualified-name="src.lib.core.base-node-life-cycle.ts.UpdateFunction" data-source-line="51" id="ent0015"><rect fill="#F1F1F1" height="40.2656" rx="2.5" ry="2.5" style="stroke:#181818;stroke-width:0.5;" width="143.0156" x="1631.21" y="865.3569"/><ellipse cx="1646.21" cy="885.4897" fill="#B4A7E5" rx="11" ry="11" style="stroke:#181818;stroke-width:1;"/><path d="M1642.1319,881.2553 L1642.1319,879.0991 L1649.5225,879.0991 L1649.5225,881.2553 L1647.0538,881.2553 L1647.0538,889.3334 L1649.5225,889.3334 L1649.5225,891.4897 L1642.1319,891.4897 L1642.1319,889.3334 L1644.6006,889.3334 L1644.6006,881.2553 L1642.1319,881.2553 Z " fill="#000000"/><text fill="#000000" font-family="sans-serif" font-size="12" font-style="italic" lengthAdjust="spacing" textLength="63.8203" x="1683.8077" y="881.4955">&#171;callback&#187;</text><text fill="#000000" font-family="sans-serif" font-size="14" font-style="italic" lengthAdjust="spacing" textLength="111.0156" x="1660.21" y="897.3207">UpdateFunction</text></g><!--class DestroyFunction--><g class="entity" data-qualified-name="src.lib.core.base-node-life-cycle.ts.DestroyFunction" data-source-line="52" id="ent0016"><rect fill="#F1F1F1" height="40.2656" rx="2.5" ry="2.5" style="stroke:#181818;stroke-width:0.5;" width="147.0967" x="1809.16" y="865.3569"/><ellipse cx="1824.16" cy="885.4897" fill="#B4A7E5" rx="11" ry="11" style="stroke:#181818;stroke-width:1;"/><path d="M1820.0819,881.2553 L1820.0819,879.0991 L1827.4725,879.0991 L1827.4725,881.2553 L1825.0038,881.2553 L1825.0038,889.3334 L1827.4725,889.3334 L1827.4725,891.4897 L1820.0819,891.4897 L1820.0819,889.3334 L1822.5506,889.3334 L1822.5506,881.2553 L1820.0819,881.2553 Z " fill="#000000"/><text fill="#000000" font-family="sans-serif" font-size="12" font-style="italic" lengthAdjust="spacing" textLength="63.8203" x="1863.7982" y="881.4955">&#171;callback&#187;</text><text fill="#000000" font-family="sans-serif" font-size="14" font-style="italic" lengthAdjust="spacing" textLength="115.0967" x="1838.16" y="897.3207">DestroyFunction</text></g><!--class CleanupFunction--><g class="entity" data-qualified-name="src.lib.core.base-node-life-cycle.ts.CleanupFunction" data-source-line="53" id="ent0017"><rect fill="#F1F1F1" height="40.2656" rx="2.5" ry="2.5" style="stroke:#181818;stroke-width:0.5;" width="149.8037" x="1990.81" y="865.3569"/><ellipse cx="2005.81" cy="885.4897" fill="#B4A7E5" rx="11" ry="11" style="stroke:#181818;stroke-width:1;"/><path d="M2001.7319,881.2553 L2001.7319,879.0991 L2009.1225,879.0991 L2009.1225,881.2553 L2006.6538,881.2553 L2006.6538,889.3334 L2009.1225,889.3334 L2009.1225,891.4897 L2001.7319,891.4897 L2001.7319,889.3334 L2004.2006,889.3334 L2004.2006,881.2553 L2001.7319,881.2553 Z " fill="#000000"/><text fill="#000000" font-family="sans-serif" font-size="12" font-style="italic" lengthAdjust="spacing" textLength="63.8203" x="2046.8017" y="881.4955">&#171;callback&#187;</text><text fill="#000000" font-family="sans-serif" font-size="14" font-style="italic" lengthAdjust="spacing" textLength="117.8037" x="2019.81" y="897.3207">CleanupFunction</text></g><!--class ZylemStage--><g class="entity" data-qualified-name="runtime collaborators.ZylemStage" data-source-line="57" id="ent0019"><rect fill="#F1F1F1" height="40.2656" rx="2.5" ry="2.5" style="stroke:#181818;stroke-width:0.5;" width="116.4717" x="979.48" y="79.2969"/><ellipse cx="994.48" cy="99.4297" fill="#ADD1B2" rx="11" ry="11" style="stroke:#181818;stroke-width:1;"/><path d="M997.4488,105.0703 Q996.8706,105.3672 996.23,105.5078 Q995.5894,105.6641 994.8863,105.6641 Q992.3863,105.6641 991.0581,104.0234 Q989.7456,102.3672 989.7456,99.2422 Q989.7456,96.1172 991.0581,94.4609 Q992.3863,92.8047 994.8863,92.8047 Q995.5894,92.8047 996.23,92.9609 Q996.8863,93.1172 997.4488,93.4141 L997.4488,96.1328 Q996.8238,95.5547 996.23,95.2891 Q995.6363,95.0078 995.0113,95.0078 Q993.6675,95.0078 992.98,96.0859 Q992.2925,97.1484 992.2925,99.2422 Q992.2925,101.3359 992.98,102.4141 Q993.6675,103.4766 995.0113,103.4766 Q995.6363,103.4766 996.23,103.2109 Q996.8238,102.9297 997.4488,102.3516 L997.4488,105.0703 Z " fill="#000000"/><text fill="#000000" font-family="sans-serif" font-size="12" font-style="italic" lengthAdjust="spacing" textLength="61.9395" x="1019.7461" y="95.4355">&#171;runtime&#187;</text><text fill="#000000" font-family="sans-serif" font-size="14" lengthAdjust="spacing" textLength="84.4717" x="1008.48" y="111.2607">ZylemStage</text></g><!--class StageEntityDelegate--><g class="entity" data-qualified-name="runtime collaborators.StageEntityDelegate" data-source-line="58" id="ent0020"><rect fill="#F1F1F1" height="40.2656" rx="2.5" ry="2.5" style="stroke:#181818;stroke-width:0.5;" width="176.792" x="1131.32" y="79.2969"/><ellipse cx="1146.32" cy="99.4297" fill="#ADD1B2" rx="11" ry="11" style="stroke:#181818;stroke-width:1;"/><path d="M1149.2888,105.0703 Q1148.7106,105.3672 1148.07,105.5078 Q1147.4294,105.6641 1146.7263,105.6641 Q1144.2263,105.6641 1142.8981,104.0234 Q1141.5856,102.3672 1141.5856,99.2422 Q1141.5856,96.1172 1142.8981,94.4609 Q1144.2263,92.8047 1146.7263,92.8047 Q1147.4294,92.8047 1148.07,92.9609 Q1148.7263,93.1172 1149.2888,93.4141 L1149.2888,96.1328 Q1148.6638,95.5547 1148.07,95.2891 Q1147.4763,95.0078 1146.8513,95.0078 Q1145.5075,95.0078 1144.82,96.0859 Q1144.1325,97.1484 1144.1325,99.2422 Q1144.1325,101.3359 1144.82,102.4141 Q1145.5075,103.4766 1146.8513,103.4766 Q1147.4763,103.4766 1148.07,103.2109 Q1148.6638,102.9297 1149.2888,102.3516 L1149.2888,105.0703 Z " fill="#000000"/><text fill="#000000" font-family="sans-serif" font-size="12" font-style="italic" lengthAdjust="spacing" textLength="67.459" x="1198.9865" y="95.4355">&#171;delegate&#187;</text><text fill="#000000" font-family="sans-serif" font-size="14" lengthAdjust="spacing" textLength="144.792" x="1160.32" y="111.2607">StageEntityDelegate</text></g><!--class GameEntity--><g class="entity" data-qualified-name="downstream node types.GameEntity" data-source-line="62" id="ent0022"><rect fill="#F1F1F1" height="40.2656" rx="2.5" ry="2.5" style="stroke:#181818;stroke-width:0.5;" width="114.5508" x="1449.44" y="253.7269"/><ellipse cx="1464.44" cy="273.8597" fill="#ADD1B2" rx="11" ry="11" style="stroke:#181818;stroke-width:1;"/><path d="M1467.4088,279.5003 Q1466.8306,279.7972 1466.19,279.9378 Q1465.5494,280.0941 1464.8463,280.0941 Q1462.3463,280.0941 1461.0181,278.4534 Q1459.7056,276.7972 1459.7056,273.6722 Q1459.7056,270.5472 1461.0181,268.8909 Q1462.3463,267.2347 1464.8463,267.2347 Q1465.5494,267.2347 1466.19,267.3909 Q1466.8463,267.5472 1467.4088,267.8441 L1467.4088,270.5628 Q1466.7838,269.9847 1466.19,269.7191 Q1465.5963,269.4378 1464.9713,269.4378 Q1463.6275,269.4378 1462.94,270.5159 Q1462.2525,271.5784 1462.2525,273.6722 Q1462.2525,275.7659 1462.94,276.8441 Q1463.6275,277.9066 1464.9713,277.9066 Q1465.5963,277.9066 1466.19,277.6409 Q1466.7838,277.3597 1467.4088,276.7816 L1467.4088,279.5003 Z " fill="#000000"/><text fill="#000000" font-family="sans-serif" font-size="12" font-style="italic" lengthAdjust="spacing" textLength="49.5176" x="1494.9566" y="269.8655">&#171;entity&#187;</text><text fill="#000000" font-family="sans-serif" font-size="14" lengthAdjust="spacing" textLength="82.5508" x="1478.44" y="285.6907">GameEntity</text></g><g class="entity" data-qualified-name="GMN40" data-source-line="88" id="ent0041"><path d="M1425.98,467.5869 L1425.98,536.7669 L1334.43,540.7669 L1425.98,544.7669 L1425.98,613.7822 A0,0 0 0 0 1425.98,613.7822 L1811.4497,613.7822 A0,0 0 0 0 1811.4497,613.7822 L1811.4497,477.5869 L1801.4497,467.5869 L1425.98,467.5869 A0,0 0 0 0 1425.98,467.5869" fill="#FEFFDD" style="stroke:#181818;stroke-width:0.5;"/><path d="M1801.4497,467.5869 L1801.4497,477.5869 L1811.4497,477.5869 L1801.4497,467.5869" fill="#FEFFDD" style="stroke:#181818;stroke-width:0.5;"/><text fill="#000000" font-family="sans-serif" font-size="13" lengthAdjust="spacing" textLength="205.7529" x="1431.98" y="484.6538">Core runtime content primitive.</text><text fill="#000000" font-family="sans-serif" font-size="13" lengthAdjust="spacing" textLength="4.1323" x="1431.98" y="499.7866">&#160;</text><text fill="#000000" font-family="sans-serif" font-size="13" lengthAdjust="spacing" textLength="105.5806" x="1431.98" y="514.9194">Responsibilities:</text><text fill="#000000" font-family="sans-serif" font-size="13" lengthAdjust="spacing" textLength="170.3521" x="1431.98" y="530.0522">- parent/child composition</text><text fill="#000000" font-family="sans-serif" font-size="13" lengthAdjust="spacing" textLength="199.0054" x="1431.98" y="545.185">- lifecycle callback registration</text><text fill="#000000" font-family="sans-serif" font-size="13" lengthAdjust="spacing" textLength="208.7617" x="1431.98" y="560.3178">- lifecycle execution entrypoints</text><text fill="#000000" font-family="sans-serif" font-size="13" lengthAdjust="spacing" textLength="157.1362" x="1431.98" y="575.4506">- cloneable node graphs</text><text fill="#000000" font-family="sans-serif" font-size="13" lengthAdjust="spacing" textLength="4.1323" x="1431.98" y="590.5835">&#160;</text><text fill="#000000" font-family="sans-serif" font-size="13" lengthAdjust="spacing" textLength="364.4697" x="1431.98" y="605.7163">Most stage content eventually flows through BaseNode.</text></g><g class="entity" data-qualified-name="GMN43" data-source-line="100" id="ent0044"><path d="M1655.67,238.5969 L1655.67,242.7669 L1370.4,246.7669 L1655.67,250.7669 L1655.67,309.1281 A0,0 0 0 0 1655.67,309.1281 L1951.7647,309.1281 A0,0 0 0 0 1951.7647,309.1281 L1951.7647,248.5969 L1941.7647,238.5969 L1655.67,238.5969 A0,0 0 0 0 1655.67,238.5969" fill="#FEFFDD" style="stroke:#181818;stroke-width:0.5;"/><path d="M1941.7647,238.5969 L1941.7647,248.5969 L1951.7647,248.5969 L1941.7647,238.5969" fill="#FEFFDD" style="stroke:#181818;stroke-width:0.5;"/><text fill="#000000" font-family="sans-serif" font-size="13" lengthAdjust="spacing" textLength="176.6299" x="1661.67" y="255.6638">Structural composite node.</text><text fill="#000000" font-family="sans-serif" font-size="13" lengthAdjust="spacing" textLength="4.1323" x="1661.67" y="270.7966">&#160;</text><text fill="#000000" font-family="sans-serif" font-size="13" lengthAdjust="spacing" textLength="223.2407" x="1661.67" y="285.9294">Used to group child nodes without</text><text fill="#000000" font-family="sans-serif" font-size="13" lengthAdjust="spacing" textLength="275.0947" x="1661.67" y="301.0622">introducing its own render or physics role.</text></g><g class="entity" data-qualified-name="GMN46" data-source-line="107" id="ent0047"><path d="M1342.88,64.1669 L1342.88,134.6981 L1692.5363,134.6981 L1692.5363,74.1669 L1682.5363,64.1669 L1342.88,64.1669" fill="#FEFFDD" style="stroke:#181818;stroke-width:0.5;"/><path d="M1682.5363,64.1669 L1682.5363,74.1669 L1692.5363,74.1669 L1682.5363,64.1669" fill="#FEFFDD" style="stroke:#181818;stroke-width:1;"/><text fill="#000000" font-family="sans-serif" font-size="13" lengthAdjust="spacing" textLength="181.416" x="1348.88" y="81.2338">Stage runtime orchestrator.</text><text fill="#000000" font-family="sans-serif" font-size="13" lengthAdjust="spacing" textLength="4.1323" x="1348.88" y="96.3666">&#160;</text><text fill="#000000" font-family="sans-serif" font-size="13" lengthAdjust="spacing" textLength="136.8364" x="1348.88" y="111.4994">Typical runtime flow:</text><text fill="#000000" font-family="sans-serif" font-size="13" lengthAdjust="spacing" textLength="328.6563" x="1348.88" y="126.6322">setup -&gt; loaded -&gt; update* -&gt; destroy -&gt; cleanup</text></g><g class="entity" data-qualified-name="GMN49" data-source-line="114" id="ent0050"><path d="M6,857.7869 L6,913.1853 L363.4258,913.1853 L363.4258,867.7869 L353.4258,857.7869 L6,857.7869" fill="#FEFFDD" style="stroke:#181818;stroke-width:0.5;"/><path d="M353.4258,857.7869 L353.4258,867.7869 L363.4258,867.7869 L353.4258,857.7869" fill="#FEFFDD" style="stroke:#181818;stroke-width:1;"/><text fill="#000000" font-family="sans-serif" font-size="13" lengthAdjust="spacing" textLength="336.4258" x="12" y="874.8538">Lifecycle methods are invoked by runtime systems,</text><text fill="#000000" font-family="sans-serif" font-size="13" lengthAdjust="spacing" textLength="312.9014" x="12" y="889.9866">while callback registration methods are used by</text><text fill="#000000" font-family="sans-serif" font-size="13" lengthAdjust="spacing" textLength="295.7563" x="12" y="905.1194">author-facing wrappers and node subclasses.</text></g><!--link Vessel to BaseNode--><g class="link" data-entity-1="ent0005" data-entity-2="ent0003" data-link-type="extension" data-source-line="65" id="lnk23"><path codeLine="65" d="M1247.67,310.3969 C1247.67,326.8869 1247.67,329.6569 1247.67,351.9269" fill="none" id="Vessel-to-BaseNode" style="stroke:#181818;stroke-width:1;"/><polygon fill="none" points="1247.67,369.9269,1253.67,351.9269,1241.67,351.9269,1247.67,369.9269" style="stroke:#181818;stroke-width:1;"/></g><!--link GameEntity to BaseNode--><g class="link" data-entity-1="ent0022" data-entity-2="ent0003" data-link-type="extension" data-source-line="66" id="lnk24"><path codeLine="66" d="M1506.71,294.4569 C1506.71,334.6769 1506.71,419.7669 1506.71,419.7669 C1506.71,419.7669 1436.91,419.7669 1352.02,419.7669" fill="none" id="GameEntity-to-BaseNode" style="stroke:#181818;stroke-width:1;"/><polygon fill="none" points="1334.02,419.7669,1352.02,425.7669,1352.02,413.7669,1334.02,419.7669" style="stroke:#181818;stroke-width:1;"/></g><!--reverse link BaseNode to BaseNode--><g class="link" data-entity-1="ent0003" data-entity-2="ent0003" data-link-type="composition" data-source-line="68" id="lnk25"><path codeLine="68" d="M1051.24,357.6669 C1051.24,346.0069 1051.24,350.7669 1051.24,350.7669 C1051.24,350.7669 1007.44,350.7669 1007.44,350.7669 C1007.44,350.7669 1007.44,758.7669 1007.44,758.7669 C1007.44,758.7669 1050.96,758.7669 1050.96,758.7669 C1050.96,758.7669 1050.96,739.0369 1050.96,711.4469" fill="none" id="BaseNode-backto-BaseNode" style="stroke:#181818;stroke-width:1;"/><polygon fill="#181818" points="1051.24,369.6669,1055.24,363.6669,1051.24,357.6669,1047.24,363.6669,1051.24,369.6669" style="stroke:#181818;stroke-width:1;"/><text fill="#000000" font-family="sans-serif" font-size="13" lengthAdjust="spacing" textLength="52.4443" x="949.44" y="559.9038">children</text><text fill="#000000" font-family="sans-serif" font-size="13" lengthAdjust="spacing" textLength="8.271" x="1037.7413" y="359.2055">1</text><text fill="#000000" font-family="sans-serif" font-size="13" lengthAdjust="spacing" textLength="23.0356" x="1022.1281" y="731.0372">0..*</text></g><!--link BaseNode to BaseNode--><g class="link" data-entity-1="ent0003" data-entity-2="ent0003" data-link-type="dependency" data-source-line="69" id="lnk26"><path codeLine="69" d="M1066.14,369.7569 C1066.14,346.6869 1066.14,330.7669 1066.14,330.7669 C1066.14,330.7669 993.46,330.7669 993.46,330.7669 C993.46,330.7669 993.46,806.7669 993.46,806.7669 C993.46,806.7669 1060.81,806.7669 1060.81,806.7669 C1060.81,806.7669 1060.81,769.2769 1060.81,717.4569" fill="none" id="BaseNode-to-BaseNode" style="stroke:#181818;stroke-width:1;"/><polygon fill="#181818" points="1060.81,711.4569,1056.81,720.4569,1060.81,716.4569,1064.81,720.4569,1060.81,711.4569" style="stroke:#181818;stroke-width:1;"/><text fill="#000000" font-family="sans-serif" font-size="13" lengthAdjust="spacing" textLength="42.8975" x="945.46" y="612.3238">parent</text><text fill="#000000" font-family="sans-serif" font-size="13" lengthAdjust="spacing" textLength="24.8066" x="1061.9562" y="359.2993">0..1</text><text fill="#000000" font-family="sans-serif" font-size="13" lengthAdjust="spacing" textLength="8.271" x="1047.7151" y="731.0476">1</text></g><!--link BaseNode to SetupContext--><g class="link" data-entity-1="ent0003" data-entity-2="ent0007" data-link-type="dependency" data-source-line="71" id="lnk27"><path codeLine="71" d="M1021.1,540.7669 C816.41,540.7669 483.71,540.7669 483.71,540.7669 C483.71,540.7669 483.71,784.7469 483.71,858.9569" fill="none" id="BaseNode-to-SetupContext" style="stroke:#181818;stroke-width:1;stroke-dasharray:7,7;"/><polygon fill="#181818" points="483.71,864.9569,487.71,855.9569,483.71,859.9569,479.71,855.9569,483.71,864.9569" style="stroke:#181818;stroke-width:1;"/></g><!--link BaseNode to LoadedContext--><g class="link" data-entity-1="ent0003" data-entity-2="ent0009" data-link-type="dependency" data-source-line="72" id="lnk28"><path codeLine="72" d="M1020.96,626.7669 C865.94,626.7669 651.71,626.7669 651.71,626.7669 C651.71,626.7669 651.71,798.1969 651.71,859.1869" fill="none" id="BaseNode-to-LoadedContext" style="stroke:#181818;stroke-width:1;stroke-dasharray:7,7;"/><polygon fill="#181818" points="651.71,865.1869,655.71,856.1869,651.71,860.1869,647.71,856.1869,651.71,865.1869" style="stroke:#181818;stroke-width:1;"/></g><!--link BaseNode to UpdateContext--><g class="link" data-entity-1="ent0003" data-entity-2="ent0010" data-link-type="dependency" data-source-line="73" id="lnk29"><path codeLine="73" d="M1031.27,711.4369 C1031.27,787.2969 1031.27,859.7669 1031.27,859.7669 C1031.27,859.7669 960.08,859.7669 900.07,859.7669" fill="none" id="BaseNode-to-UpdateContext" style="stroke:#181818;stroke-width:1;stroke-dasharray:7,7;"/><polygon fill="#181818" points="894.07,859.7669,903.07,863.7669,899.07,859.7669,903.07,855.7669,894.07,859.7669" style="stroke:#181818;stroke-width:1;"/></g><!--link BaseNode to DestroyContext--><g class="link" data-entity-1="ent0003" data-entity-2="ent0011" data-link-type="dependency" data-source-line="74" id="lnk30"><path codeLine="74" d="M1041.12,711.5669 C1041.12,772.6969 1041.12,828.0869 1041.12,858.9769" fill="none" id="BaseNode-to-DestroyContext" style="stroke:#181818;stroke-width:1;stroke-dasharray:7,7;"/><polygon fill="#181818" points="1041.12,864.9769,1045.12,855.9769,1041.12,859.9769,1037.12,855.9769,1041.12,864.9769" style="stroke:#181818;stroke-width:1;"/></g><!--link BaseNode to CleanupContext--><g class="link" data-entity-1="ent0003" data-entity-2="ent0012" data-link-type="dependency" data-source-line="75" id="lnk31"><path codeLine="75" d="M1177.71,711.5669 C1177.71,772.6969 1177.71,828.0869 1177.71,858.9769" fill="none" id="BaseNode-to-CleanupContext" style="stroke:#181818;stroke-width:1;stroke-dasharray:7,7;"/><polygon fill="#181818" points="1177.71,864.9769,1181.71,855.9769,1177.71,859.9769,1173.71,855.9769,1177.71,864.9769" style="stroke:#181818;stroke-width:1;"/></g><!--link BaseNode to SetupFunction--><g class="link" data-entity-1="ent0003" data-entity-2="ent0013" data-link-type="dependency" data-source-line="77" id="lnk32"><path codeLine="77" d="M1309.59,711.5669 C1309.59,772.6969 1309.59,828.0869 1309.59,858.9769" fill="none" id="BaseNode-to-SetupFunction" style="stroke:#181818;stroke-width:1;stroke-dasharray:7,7;"/><polygon fill="#181818" points="1309.59,864.9769,1313.59,855.9769,1309.59,859.9769,1305.59,855.9769,1309.59,864.9769" style="stroke:#181818;stroke-width:1;"/><text fill="#000000" font-family="sans-serif" font-size="13" lengthAdjust="spacing" textLength="57.1924" x="1251.59" y="801.3438">registers</text></g><!--link BaseNode to LoadedFunction--><g class="link" data-entity-1="ent0003" data-entity-2="ent0014" data-link-type="dependency" data-source-line="78" id="lnk33"><path codeLine="78" d="M1334.46,691.7669 C1426.42,691.7669 1524.71,691.7669 1524.71,691.7669 C1524.71,691.7669 1524.71,809.3869 1524.71,859.1169" fill="none" id="BaseNode-to-LoadedFunction" style="stroke:#181818;stroke-width:1;stroke-dasharray:7,7;"/><polygon fill="#181818" points="1524.71,865.1169,1528.71,856.1169,1524.71,860.1169,1520.71,856.1169,1524.71,865.1169" style="stroke:#181818;stroke-width:1;"/><text fill="#000000" font-family="sans-serif" font-size="13" lengthAdjust="spacing" textLength="57.1924" x="1458.26" y="687.8338">registers</text></g><!--link BaseNode to UpdateFunction--><g class="link" data-entity-1="ent0003" data-entity-2="ent0015" data-link-type="dependency" data-source-line="79" id="lnk34"><path codeLine="79" d="M1334.16,672.7669 C1488.89,672.7669 1702.71,672.7669 1702.71,672.7669 C1702.71,672.7669 1702.71,805.8469 1702.71,859.0869" fill="none" id="BaseNode-to-UpdateFunction" style="stroke:#181818;stroke-width:1;stroke-dasharray:7,7;"/><polygon fill="#181818" points="1702.71,865.0869,1706.71,856.0869,1702.71,860.0869,1698.71,856.0869,1702.71,865.0869" style="stroke:#181818;stroke-width:1;"/><text fill="#000000" font-family="sans-serif" font-size="13" lengthAdjust="spacing" textLength="57.1924" x="1556.6" y="668.8338">registers</text></g><!--link BaseNode to DestroyFunction--><g class="link" data-entity-1="ent0003" data-entity-2="ent0016" data-link-type="dependency" data-source-line="80" id="lnk35"><path codeLine="80" d="M1334.37,652.7669 C1541.78,652.7669 1881.6,652.7669 1881.6,652.7669 C1881.6,652.7669 1881.6,802.6169 1881.6,859.2369" fill="none" id="BaseNode-to-DestroyFunction" style="stroke:#181818;stroke-width:1;stroke-dasharray:7,7;"/><polygon fill="#181818" points="1881.6,865.2369,1885.6,856.2369,1881.6,860.2369,1877.6,856.2369,1881.6,865.2369" style="stroke:#181818;stroke-width:1;"/><text fill="#000000" font-family="sans-serif" font-size="13" lengthAdjust="spacing" textLength="57.1924" x="1656.22" y="648.8338">registers</text></g><!--link BaseNode to CleanupFunction--><g class="link" data-entity-1="ent0003" data-entity-2="ent0017" data-link-type="dependency" data-source-line="81" id="lnk36"><path codeLine="81" d="M1334.43,633.7669 C1589.35,633.7669 2065.71,633.7669 2065.71,633.7669 C2065.71,633.7669 2065.71,798.7669 2065.71,858.8869" fill="none" id="BaseNode-to-CleanupFunction" style="stroke:#181818;stroke-width:1;stroke-dasharray:7,7;"/><polygon fill="#181818" points="2065.71,864.8869,2069.71,855.8869,2065.71,859.8869,2061.71,855.8869,2065.71,864.8869" style="stroke:#181818;stroke-width:1;"/><text fill="#000000" font-family="sans-serif" font-size="13" lengthAdjust="spacing" textLength="57.1924" x="1757.63" y="629.8338">registers</text></g><!--link ZylemStage to BaseNode--><g class="link" data-entity-1="ent0019" data-entity-2="ent0003" data-link-type="dependency" data-source-line="83" id="lnk37"><path codeLine="83" d="M1081.04,119.8269 C1081.04,164.2769 1081.04,267.6069 1081.04,363.6869" fill="none" id="ZylemStage-to-BaseNode" style="stroke:#181818;stroke-width:1;stroke-dasharray:7,7;"/><polygon fill="#181818" points="1081.04,369.6869,1085.04,360.6869,1081.04,364.6869,1077.04,360.6869,1081.04,369.6869" style="stroke:#181818;stroke-width:1;"/><text fill="#000000" font-family="sans-serif" font-size="13" lengthAdjust="spacing" textLength="97.2017" x="983.04" y="240.8238">drives lifecycle</text></g><!--link StageEntityDelegate to BaseNode--><g class="link" data-entity-1="ent0020" data-entity-2="ent0003" data-link-type="dependency" data-source-line="84" id="lnk38"><path codeLine="84" d="M1146.33,119.8269 C1146.33,164.2769 1146.33,267.6069 1146.33,363.6869" fill="none" id="StageEntityDelegate-to-BaseNode" style="stroke:#181818;stroke-width:1;stroke-dasharray:7,7;"/><polygon fill="#181818" points="1146.33,369.6869,1150.33,360.6869,1146.33,364.6869,1142.33,360.6869,1146.33,369.6869" style="stroke:#181818;stroke-width:1;"/><text fill="#000000" font-family="sans-serif" font-size="13" lengthAdjust="spacing" textLength="122.2686" x="1023.33" y="257.8238">traverses / spawns</text></g><!--link StageEntityDelegate to Vessel--><g class="link" data-entity-1="ent0020" data-entity-2="ent0005" data-link-type="dependency" data-source-line="85" id="lnk39"><path codeLine="85" d="M1234.72,119.7769 C1234.72,148.5369 1234.72,195.5369 1234.72,231.2369" fill="none" id="StageEntityDelegate-to-Vessel" style="stroke:#181818;stroke-width:1;stroke-dasharray:7,7;"/><polygon fill="#181818" points="1234.72,237.2369,1238.72,228.2369,1234.72,232.2369,1230.72,228.2369,1234.72,237.2369" style="stroke:#181818;stroke-width:1;"/><text fill="#000000" font-family="sans-serif" font-size="13" lengthAdjust="spacing" textLength="170.1045" x="1063.72" y="191.5738">expands composite nodes</text></g><!--link ZylemStage to GMN46--><g class="link" data-entity-1="ent0019" data-entity-2="ent0047" data-link-type="association" data-source-line="107" id="lnk48"><path d="M1036.33,120.0269 C1036.33,124.4169 1036.33,127.7669 1036.33,127.7669 C1036.33,127.7669 1204.92,127.7669 1342.56,127.7669" fill="none" id="ZylemStage-GMN46" style="stroke:#181818;stroke-width:1;stroke-dasharray:7,7;"/></g><!--link BaseNode to GMN49--><g class="link" data-entity-1="ent0003" data-entity-2="ent0050" data-link-type="association" data-source-line="114" id="lnk51"><path d="M1021.19,455.7669 C741.46,455.7669 184.71,455.7669 184.71,455.7669 C184.71,455.7669 184.71,761.6869 184.71,857.2869" fill="none" id="BaseNode-GMN49" style="stroke:#181818;stroke-width:1;stroke-dasharray:7,7;"/></g><?plantuml-src ZLPDZzis4BtpLn0-RRQHdLwDXO5cqnO5qXwwJGujUg2eiKGiHH8aPQ_QvhztIEgBsbKs5sFCUHpEFBuPqGilWTQiXKAAad9juKZVCmU_wGge56VWFKS4KnKwMwETy48hGjoZK8PPrbBNi4fVXQhfcKa72uzX_97LyE1xZ621UwPgkGHmoPpxmNihoix3Broh1_4Fq7SBY1GAV6-0QkiRJKWZC2zeZUzf2sq9rX4od4Dtpl83bd48PHnAhA9GMCRUkntzbz1qt5nTMABqEpm7b9-hJgky4R92nxp-rz_HKnG9mAhg9e9cn9iZzOrmoM-XrHVuAeHBhU3cpUheyG0a0tndRiwOGxH-wXGFv6SnjFgeMGLLX2Lp0_V9LCn3n2Lp0_S1dBUwZy31ta3UIs1go72mNqGQ2mPKzItb3D1lodKaAjnnYitzqn3yNYiFJnxX5osg6JUG5O79ta8EAKHaihUG8s4HElpPmewKHUpmvnds2vd4-XcS0pbAzJNDJO9AssAeBw_sHn7Ql8XzlcgL9PNqxYxquUaqUJF-dhipqYRtM4e5qhCZLLteuPZek2zdy7dSdBNPZm21I_RCEEGAGmndKfP8Gumpm_A6sSRb8jp6hVfb6xXgbnoul3BRAIzQmE4h9IkrPLxRx8x-nE7QFlW0lhiRq0ksekT7NFNz1v1GOnc8gmPpTHZESOK50CxT80mQcCqE-na_52aO1e5ef123JelYlzCypHRet46c6RpxVaTlYuBktkttjxjvDX_fE80NMCGWl2XESTi2cqRu8kn-Vyh4ctiouUQkJBIvAzTbxiir-L8YqqqVyKjO2-V3b-k5h5x7hRIuYLjhSHEurk8II1Ro2jW5wPKL5t3p6u6y9BNL7c_P1SFYjWDrXg7QDdSDYZfIU3Bu-d3JymEYDZ4rfT6secuyrUTPNFSutEZSDdWZobDZHOilbmli2VaTdD7AYL98N09t9CMWe4CKNVRGAHQFeB551twm5zS8U0BUHH8ncksDnevtY8Y3cPKovKvhoqo35VogdQSkaZic2XVyxV2WdfwblZgSxbPtTJFLjoVuVQIXzZK3mz1_yBRZlhDChYZ3qZyvgAZNc83kJ6gnn2Qz2dnUTPvWmbPN7G_lEU4TnOc0vQeABBx0g6bw9xYZLikl939h9jtkT1lQyWOYSTfYDd_qHY2dapiKV2Gkj0l59fUn8OBLHSdV1hDAgWucJxfTfr5gxtMRIUBZT44jO9ae9hnkdCON_OW7bFsKWUjHzgrxIwv8pSQ5Pp4w5mCGrk6QBN2s1-AkUBy6THwVpV76NLV62Gfkfkr_?></g></svg>